<svg width="158" height="158" viewBox="0 0 158 158" fill="none" xmlns="http://www.w3.org/2000/svg">
<g filter="url(#filter0_d)">
<circle cx="79" cy="75" r="74" fill="white" stroke="#D7CFCF" stroke-width="2"/>
<path d="M77.456 109.248C74.384 109.248 71.536 108.736 68.912 107.712C66.288 106.688 63.984 104.928 62 102.432C60.08 99.872 58.544 96.352 57.392 91.872C56.304 87.328 55.76 81.536 55.76 74.496C55.76 67.52 56.304 61.792 57.392 57.312C58.544 52.832 60.08 49.344 62 46.848C63.984 44.288 66.288 42.528 68.912 41.568C71.536 40.544 74.384 40.032 77.456 40.032C80.528 40.032 83.376 40.544 86 41.568C88.624 42.528 90.928 44.288 92.912 46.848C94.896 49.344 96.432 52.832 97.52 57.312C98.608 61.792 99.152 67.52 99.152 74.496C99.152 81.536 98.608 87.328 97.52 91.872C96.432 96.352 94.896 99.872 92.912 102.432C90.928 104.928 88.624 106.688 86 107.712C83.376 108.736 80.528 109.248 77.456 109.248ZM77.552 101.952C80.496 101.952 82.928 101.216 84.848 99.744C86.832 98.208 88.336 95.456 89.36 91.488C90.384 87.52 90.896 81.856 90.896 74.496C90.896 68.8 90.576 64.16 89.936 60.576C89.36 56.992 88.496 54.24 87.344 52.32C86.192 50.4 84.784 49.088 83.12 48.384C81.456 47.616 79.568 47.232 77.456 47.232C75.344 47.232 73.456 47.584 71.792 48.288C70.128 48.992 68.72 50.304 67.568 52.224C66.416 54.144 65.552 56.896 64.976 60.48C64.4 64 64.112 68.608 64.112 74.304C64.112 81.664 64.592 87.36 65.552 91.392C66.576 95.36 68.08 98.112 70.064 99.648C72.112 101.184 74.608 101.952 77.552 101.952Z" fill="#E4951E"/>
</g>
<defs>
<filter id="filter0_d" x="0" y="0" width="158" height="158" filterUnits="userSpaceOnUse" color-interpolation-filters="sRGB">
<feFlood flood-opacity="0" result="BackgroundImageFix"/>
<feColorMatrix in="SourceAlpha" type="matrix" values="0 0 0 0 0 0 0 0 0 0 0 0 0 0 0 0 0 0 127 0"/>
<feOffset dy="4"/>
<feGaussianBlur stdDeviation="2"/>
<feColorMatrix type="matrix" values="0 0 0 0 0 0 0 0 0 0 0 0 0 0 0 0 0 0 0.25 0"/>
<feBlend mode="normal" in2="BackgroundImageFix" result="effect1_dropShadow"/>
<feBlend mode="normal" in="SourceGraphic" in2="effect1_dropShadow" result="shape"/>
</filter>
</defs>
</svg>
