<svg width="158" height="158" viewBox="0 0 158 158" fill="none" xmlns="http://www.w3.org/2000/svg">
<g filter="url(#filter0_d)">
<circle cx="79" cy="75" r="74" fill="white" stroke="#D7CFCF" stroke-width="2"/>
<path d="M34.392 103V96.088L50.424 96.28L51.096 43.576H50.616L36.504 58.456L31.128 53.272L49.944 35.608L58.584 36.28V96.28L72.696 96.088V103H34.392ZM103.112 104.248C100.04 104.248 97.1923 103.736 94.5683 102.712C91.9443 101.688 89.6403 99.928 87.6562 97.432C85.7363 94.872 84.2003 91.352 83.0483 86.872C81.9603 82.328 81.4163 76.536 81.4163 69.496C81.4163 62.52 81.9603 56.792 83.0483 52.312C84.2003 47.832 85.7363 44.344 87.6562 41.848C89.6403 39.288 91.9443 37.528 94.5683 36.568C97.1923 35.544 100.04 35.032 103.112 35.032C106.184 35.032 109.032 35.544 111.656 36.568C114.28 37.528 116.584 39.288 118.568 41.848C120.552 44.344 122.088 47.832 123.176 52.312C124.264 56.792 124.808 62.52 124.808 69.496C124.808 76.536 124.264 82.328 123.176 86.872C122.088 91.352 120.552 94.872 118.568 97.432C116.584 99.928 114.28 101.688 111.656 102.712C109.032 103.736 106.184 104.248 103.112 104.248ZM103.208 96.952C106.152 96.952 108.584 96.216 110.504 94.744C112.488 93.208 113.992 90.456 115.016 86.488C116.04 82.52 116.552 76.856 116.552 69.496C116.552 63.8 116.232 59.16 115.592 55.576C115.016 51.992 114.152 49.24 113 47.32C111.848 45.4 110.44 44.088 108.776 43.384C107.112 42.616 105.224 42.232 103.112 42.232C101 42.232 99.1123 42.584 97.4483 43.288C95.7843 43.992 94.3763 45.304 93.2243 47.224C92.0723 49.144 91.2083 51.896 90.6323 55.48C90.0563 59 89.7682 63.608 89.7682 69.304C89.7682 76.664 90.2483 82.36 91.2083 86.392C92.2323 90.36 93.7363 93.112 95.7203 94.648C97.7683 96.184 100.264 96.952 103.208 96.952Z" fill="#E4951E"/>
</g>
<defs>
<filter id="filter0_d" x="0" y="0" width="158" height="158" filterUnits="userSpaceOnUse" color-interpolation-filters="sRGB">
<feFlood flood-opacity="0" result="BackgroundImageFix"/>
<feColorMatrix in="SourceAlpha" type="matrix" values="0 0 0 0 0 0 0 0 0 0 0 0 0 0 0 0 0 0 127 0"/>
<feOffset dy="4"/>
<feGaussianBlur stdDeviation="2"/>
<feColorMatrix type="matrix" values="0 0 0 0 0 0 0 0 0 0 0 0 0 0 0 0 0 0 0.25 0"/>
<feBlend mode="normal" in2="BackgroundImageFix" result="effect1_dropShadow"/>
<feBlend mode="normal" in="SourceGraphic" in2="effect1_dropShadow" result="shape"/>
</filter>
</defs>
</svg>
