<svg width="158" height="158" viewBox="0 0 158 158" fill="none" xmlns="http://www.w3.org/2000/svg">
<g filter="url(#filter0_d)">
<circle cx="79" cy="75" r="74" fill="white" stroke="#D7CFCF" stroke-width="2"/>
<path d="M34.392 103V96.088L50.424 96.28L51.096 43.576H50.616L36.504 58.456L31.128 53.272L49.944 35.608L58.584 36.28V96.28L72.696 96.088V103H34.392ZM79.1573 103V96.76C79.1573 96.76 80.6293 95.032 83.5733 91.576C86.5173 88.12 90.8053 82.808 96.4373 75.64C100.469 70.52 103.765 65.976 106.325 62.008C108.885 57.976 110.165 54.104 110.165 50.392C110.165 47.96 109.493 46.008 108.149 44.536C106.869 43 104.597 42.232 101.333 42.232C98.2613 42.232 94.9653 42.872 91.4453 44.152C87.9253 45.432 84.7893 46.968 82.0373 48.76L78.6773 42.712C79.7013 41.816 81.2373 40.76 83.2853 39.544C85.3973 38.328 87.8613 37.272 90.6773 36.376C93.4933 35.48 96.4373 35.032 99.5093 35.032C103.093 35.032 106.261 35.704 109.013 37.048C111.829 38.392 114.037 40.28 115.637 42.712C117.237 45.144 118.037 47.992 118.037 51.256C118.037 54.008 117.461 56.792 116.309 59.608C115.221 62.36 113.813 65.08 112.085 67.768C110.421 70.392 108.661 72.92 106.805 75.352C106.101 76.312 105.109 77.624 103.829 79.288C102.549 80.888 101.173 82.648 99.7013 84.568C98.2293 86.488 96.8213 88.312 95.4773 90.04C94.1333 91.704 93.0133 93.08 92.1173 94.168C91.2853 95.256 90.8693 95.8 90.8693 95.8V96.28L119.477 95.8V103H79.1573Z" fill="#E4951E"/>
</g>
<defs>
<filter id="filter0_d" x="0" y="0" width="158" height="158" filterUnits="userSpaceOnUse" color-interpolation-filters="sRGB">
<feFlood flood-opacity="0" result="BackgroundImageFix"/>
<feColorMatrix in="SourceAlpha" type="matrix" values="0 0 0 0 0 0 0 0 0 0 0 0 0 0 0 0 0 0 127 0"/>
<feOffset dy="4"/>
<feGaussianBlur stdDeviation="2"/>
<feColorMatrix type="matrix" values="0 0 0 0 0 0 0 0 0 0 0 0 0 0 0 0 0 0 0.25 0"/>
<feBlend mode="normal" in2="BackgroundImageFix" result="effect1_dropShadow"/>
<feBlend mode="normal" in="SourceGraphic" in2="effect1_dropShadow" result="shape"/>
</filter>
</defs>
</svg>
