<svg width="158" height="158" viewBox="0 0 158 158" fill="none" xmlns="http://www.w3.org/2000/svg">
<g filter="url(#filter0_d)">
<circle cx="79" cy="75" r="74" fill="white" stroke="#D7CFCF" stroke-width="2"/>
<path d="M34.392 103V96.088L50.424 96.28L51.096 43.576H50.616L36.504 58.456L31.128 53.272L49.944 35.608L58.584 36.28V96.28L72.696 96.088V103H34.392ZM99.3795 104.248C95.6675 104.248 92.3395 103.832 89.3955 103C86.5155 102.232 84.1475 101.4 82.2915 100.504C80.4995 99.544 79.2835 98.904 78.6435 98.584L81.7155 92.44C82.2915 92.696 83.5395 93.208 85.4595 93.976C87.3795 94.744 89.6835 95.448 92.3715 96.088C95.0595 96.728 97.8115 97.048 100.628 97.048C104.596 97.048 107.284 96.088 108.692 94.168C110.164 92.184 110.9 89.144 110.9 85.048C110.9 79.672 109.844 75.96 107.732 73.912C105.62 71.864 102.324 70.84 97.8435 70.84H88.9155V64.504C92.8195 64.184 96.0835 63.864 98.7075 63.544C101.332 63.224 103.412 62.712 104.948 62.008C106.484 61.304 107.572 60.248 108.212 58.84C108.852 57.368 109.172 55.384 109.172 52.888C109.172 48.792 108.5 46.008 107.156 44.536C106.324 43.576 104.98 42.904 103.124 42.52C101.268 42.136 98.9955 41.944 96.3075 41.944C95.1555 41.944 94.0035 41.976 92.8515 42.04C91.7635 42.104 90.4515 42.232 88.9155 42.424C87.4435 42.552 85.5235 42.776 83.1555 43.096L82.1955 36.568C83.3475 36.248 84.7555 35.992 86.4195 35.8C88.1475 35.544 89.9395 35.352 91.7955 35.224C93.7155 35.096 95.4435 35.032 96.9795 35.032C100.884 35.032 104.372 35.544 107.444 36.568C110.516 37.592 112.948 39.32 114.74 41.752C116.532 44.184 117.428 47.544 117.428 51.832C117.428 54.968 116.98 57.528 116.084 59.512C115.188 61.432 114.1 62.936 112.82 64.024C111.604 65.048 110.42 65.784 109.268 66.232C108.116 66.616 107.252 66.872 106.676 67V67.384C107.956 67.576 109.3 67.96 110.708 68.536C112.18 69.112 113.588 70.04 114.932 71.32C116.276 72.536 117.364 74.2 118.196 76.312C119.028 78.424 119.444 81.112 119.444 84.376C119.444 87.96 118.804 91.256 117.524 94.264C116.244 97.272 114.132 99.704 111.188 101.56C108.244 103.352 104.308 104.248 99.3795 104.248Z" fill="#E4951E"/>
</g>
<defs>
<filter id="filter0_d" x="0" y="0" width="158" height="158" filterUnits="userSpaceOnUse" color-interpolation-filters="sRGB">
<feFlood flood-opacity="0" result="BackgroundImageFix"/>
<feColorMatrix in="SourceAlpha" type="matrix" values="0 0 0 0 0 0 0 0 0 0 0 0 0 0 0 0 0 0 127 0"/>
<feOffset dy="4"/>
<feGaussianBlur stdDeviation="2"/>
<feColorMatrix type="matrix" values="0 0 0 0 0 0 0 0 0 0 0 0 0 0 0 0 0 0 0.25 0"/>
<feBlend mode="normal" in2="BackgroundImageFix" result="effect1_dropShadow"/>
<feBlend mode="normal" in="SourceGraphic" in2="effect1_dropShadow" result="shape"/>
</filter>
</defs>
</svg>
