<svg width="158" height="158" viewBox="0 0 158 158" fill="none" xmlns="http://www.w3.org/2000/svg">
<g filter="url(#filter0_d)">
<circle cx="79" cy="75" r="74" fill="white" stroke="#D7CFCF" stroke-width="2"/>
<path d="M34.392 103V96.088L50.424 96.28L51.096 43.576H50.616L36.504 58.456L31.128 53.272L49.944 35.608L58.584 36.28V96.28L72.696 96.088V103H34.392ZM98.0468 104.248C95.1028 104.248 92.3508 103.896 89.7908 103.192C87.2948 102.488 85.0868 101.688 83.1668 100.792C81.3108 99.832 79.8708 99 78.8468 98.296C77.8228 97.592 77.3108 97.24 77.3108 97.24L80.3828 91.192C80.3828 91.192 80.9268 91.48 82.0148 92.056C83.1668 92.632 84.6388 93.336 86.4308 94.168C88.2868 94.936 90.3348 95.608 92.5748 96.184C94.8148 96.76 97.0548 97.048 99.2948 97.048C102.303 97.048 104.543 96.568 106.015 95.608C107.231 94.776 108.127 93.208 108.703 90.904C109.343 88.6 109.663 86.328 109.663 84.088C109.663 82.04 109.407 79.96 108.895 77.848C108.447 75.736 107.775 74.264 106.879 73.432C105.855 72.344 103.775 71.608 100.639 71.224C97.5028 70.776 93.7908 70.552 89.5028 70.552C87.3908 70.552 85.5988 70.584 84.1268 70.648C82.6548 70.712 81.9188 70.744 81.9188 70.744L86.8148 36.28H115.135V43.288L93.5348 42.904L90.7508 63.352C94.6548 63.544 98.2708 63.928 101.599 64.504C104.927 65.08 107.807 66.072 110.239 67.48C112.735 68.888 114.655 70.872 115.999 73.432C117.407 75.928 118.111 79.224 118.111 83.32C118.111 89.912 116.319 95.064 112.735 98.776C109.151 102.424 104.255 104.248 98.0468 104.248Z" fill="#E4951E"/>
</g>
<defs>
<filter id="filter0_d" x="0" y="0" width="158" height="158" filterUnits="userSpaceOnUse" color-interpolation-filters="sRGB">
<feFlood flood-opacity="0" result="BackgroundImageFix"/>
<feColorMatrix in="SourceAlpha" type="matrix" values="0 0 0 0 0 0 0 0 0 0 0 0 0 0 0 0 0 0 127 0"/>
<feOffset dy="4"/>
<feGaussianBlur stdDeviation="2"/>
<feColorMatrix type="matrix" values="0 0 0 0 0 0 0 0 0 0 0 0 0 0 0 0 0 0 0.25 0"/>
<feBlend mode="normal" in2="BackgroundImageFix" result="effect1_dropShadow"/>
<feBlend mode="normal" in="SourceGraphic" in2="effect1_dropShadow" result="shape"/>
</filter>
</defs>
</svg>
