<svg width="158" height="158" viewBox="0 0 158 158" fill="none" xmlns="http://www.w3.org/2000/svg">
<g filter="url(#filter0_d)">
<circle cx="79" cy="75" r="74" fill="white" stroke="#D7CFCF" stroke-width="2"/>
<path d="M34.392 103V96.088L50.424 96.28L51.096 43.576H50.616L36.504 58.456L31.128 53.272L49.944 35.608L58.584 36.28V96.28L72.696 96.088V103H34.392ZM99.726 104.248C95.31 104.248 91.502 103.224 88.302 101.176C85.166 99.064 82.734 95.608 81.006 90.808C79.342 85.944 78.51 79.448 78.51 71.32C78.51 64.024 79.15 58.04 80.43 53.368C81.774 48.632 83.566 44.92 85.806 42.232C88.11 39.544 90.766 37.688 93.774 36.664C96.782 35.576 99.95 35.032 103.278 35.032C105.966 35.032 108.302 35.256 110.286 35.704C112.27 36.088 113.806 36.504 114.894 36.952C116.046 37.336 116.622 37.528 116.622 37.528L114.798 44.344C114.798 44.344 114.126 44.184 112.782 43.864C111.502 43.48 109.87 43.128 107.886 42.808C105.902 42.488 103.822 42.328 101.646 42.328C99.342 42.328 97.454 42.584 95.982 43.096C94.51 43.608 93.23 44.408 92.142 45.496C90.798 46.904 89.678 49.016 88.782 51.832C87.95 54.648 87.406 58.616 87.15 63.736C87.15 63.736 87.63 63.672 88.59 63.544C89.614 63.416 90.894 63.32 92.43 63.256C94.03 63.128 95.662 63.064 97.326 63.064C101.934 63.064 105.934 63.704 109.326 64.984C112.718 66.2 115.342 68.248 117.198 71.128C119.054 74.008 119.982 77.912 119.982 82.84C119.982 89.752 118.158 95.064 114.51 98.776C110.926 102.424 105.998 104.248 99.726 104.248ZM100.302 97.432C104.782 97.432 107.854 96.376 109.518 94.264C111.182 92.088 112.014 88.376 112.014 83.128C112.014 79.864 111.662 77.272 110.958 75.352C110.318 73.432 109.07 72.056 107.214 71.224C105.358 70.392 102.702 69.976 99.246 69.976C97.07 69.976 95.054 70.104 93.198 70.36C91.342 70.552 89.838 70.776 88.686 71.032C87.534 71.224 86.958 71.32 86.958 71.32V79C86.958 82.584 87.182 85.464 87.63 87.64C88.142 89.816 88.718 91.448 89.358 92.536C89.998 93.56 90.51 94.296 90.894 94.744C91.534 95.32 92.558 95.928 93.966 96.568C95.374 97.144 97.486 97.432 100.302 97.432Z" fill="#E4951E"/>
</g>
<defs>
<filter id="filter0_d" x="0" y="0" width="158" height="158" filterUnits="userSpaceOnUse" color-interpolation-filters="sRGB">
<feFlood flood-opacity="0" result="BackgroundImageFix"/>
<feColorMatrix in="SourceAlpha" type="matrix" values="0 0 0 0 0 0 0 0 0 0 0 0 0 0 0 0 0 0 127 0"/>
<feOffset dy="4"/>
<feGaussianBlur stdDeviation="2"/>
<feColorMatrix type="matrix" values="0 0 0 0 0 0 0 0 0 0 0 0 0 0 0 0 0 0 0.25 0"/>
<feBlend mode="normal" in2="BackgroundImageFix" result="effect1_dropShadow"/>
<feBlend mode="normal" in="SourceGraphic" in2="effect1_dropShadow" result="shape"/>
</filter>
</defs>
</svg>
