<svg width="158" height="158" viewBox="0 0 158 158" fill="none" xmlns="http://www.w3.org/2000/svg">
<g filter="url(#filter0_d)">
<circle cx="79" cy="75" r="74" fill="white" stroke="#D7CFCF" stroke-width="2"/>
<path d="M35.392 103V96.088L51.424 96.28L52.096 43.576H51.616L37.504 58.456L32.128 53.272L50.944 35.608L59.584 36.28V96.28L73.696 96.088V103H35.392ZM102.192 104.248C97.5843 104.248 93.7123 103.32 90.5763 101.464C87.4403 99.544 85.0723 97.08 83.4723 94.072C81.9363 91.064 81.1683 87.96 81.1683 84.76C81.1683 81.944 81.7123 79.416 82.8003 77.176C83.9523 74.872 85.3923 72.92 87.1203 71.32C88.8483 69.72 90.5763 68.568 92.3043 67.864C89.9363 66.136 87.8243 63.992 85.9683 61.432C84.1123 58.808 83.1843 55.576 83.1843 51.736C83.1843 46.872 84.8163 42.872 88.0803 39.736C91.3443 36.6 96.1443 35.032 102.48 35.032C106.832 35.032 110.448 35.8 113.328 37.336C116.208 38.808 118.352 40.824 119.76 43.384C121.168 45.88 121.872 48.696 121.872 51.832C121.872 56.12 120.88 59.576 118.896 62.2C116.976 64.824 114.608 66.936 111.792 68.536C113.456 69.496 115.216 70.68 117.072 72.088C118.928 73.496 120.528 75.288 121.872 77.464C123.216 79.576 123.888 82.264 123.888 85.528C123.888 88.792 123.024 91.864 121.296 94.744C119.632 97.56 117.168 99.864 113.904 101.656C110.704 103.384 106.8 104.248 102.192 104.248ZM104.208 65.272C107.216 64.184 109.552 62.616 111.216 60.568C112.88 58.52 113.712 55.64 113.712 51.928C113.712 48.856 112.88 46.392 111.216 44.536C109.616 42.616 106.736 41.656 102.576 41.656C98.2243 41.656 95.2483 42.52 93.6483 44.248C92.0483 45.912 91.2483 48.12 91.2483 50.872C91.2483 54.2 92.2403 56.984 94.2243 59.224C96.2083 61.4 99.5363 63.416 104.208 65.272ZM102.48 97.336C106.896 97.336 110.096 96.408 112.08 94.552C114.128 92.632 115.152 90.008 115.152 86.68C115.152 84.12 114.64 81.976 113.616 80.248C112.656 78.52 111.056 76.984 108.816 75.64C106.576 74.296 103.568 72.984 99.7923 71.704C96.6563 72.92 94.2243 74.488 92.4963 76.408C90.7683 78.264 89.9043 81.304 89.9043 85.528C89.9043 87.704 90.2883 89.688 91.0563 91.48C91.8243 93.272 93.1363 94.712 94.9923 95.8C96.8483 96.824 99.3443 97.336 102.48 97.336Z" fill="#E4951E"/>
</g>
<defs>
<filter id="filter0_d" x="0" y="0" width="158" height="158" filterUnits="userSpaceOnUse" color-interpolation-filters="sRGB">
<feFlood flood-opacity="0" result="BackgroundImageFix"/>
<feColorMatrix in="SourceAlpha" type="matrix" values="0 0 0 0 0 0 0 0 0 0 0 0 0 0 0 0 0 0 127 0"/>
<feOffset dy="4"/>
<feGaussianBlur stdDeviation="2"/>
<feColorMatrix type="matrix" values="0 0 0 0 0 0 0 0 0 0 0 0 0 0 0 0 0 0 0.25 0"/>
<feBlend mode="normal" in2="BackgroundImageFix" result="effect1_dropShadow"/>
<feBlend mode="normal" in="SourceGraphic" in2="effect1_dropShadow" result="shape"/>
</filter>
</defs>
</svg>
