<svg width="158" height="158" viewBox="0 0 158 158" fill="none" xmlns="http://www.w3.org/2000/svg">
<g filter="url(#filter0_d)">
<circle cx="79" cy="75" r="74" fill="white" stroke="#D7CFCF" stroke-width="2"/>
<path d="M34.392 103V96.088L50.424 96.28L51.096 43.576H50.616L36.504 58.456L31.128 53.272L49.944 35.608L58.584 36.28V96.28L72.696 96.088V103H34.392ZM98.574 104.248C96.078 104.248 93.71 103.96 91.47 103.384C89.294 102.808 87.374 102.136 85.71 101.368C84.046 100.536 82.734 99.832 81.774 99.256C80.814 98.68 80.334 98.392 80.334 98.392L83.31 92.344C83.31 92.344 83.758 92.6 84.654 93.112C85.55 93.624 86.766 94.232 88.302 94.936C89.838 95.576 91.566 96.152 93.486 96.664C95.406 97.176 97.39 97.432 99.438 97.432C101.102 97.432 102.446 97.24 103.47 96.856C104.494 96.408 105.358 95.8 106.062 95.032C107.47 93.56 108.686 91.064 109.71 87.544C110.734 83.96 111.246 79.672 111.246 74.68C111.246 74.68 110.574 74.808 109.23 75.064C107.886 75.32 106.222 75.576 104.238 75.832C102.318 76.024 100.366 76.12 98.382 76.12C92.43 76.12 87.63 74.584 83.982 71.512C80.334 68.376 78.51 63.32 78.51 56.344C78.51 49.624 80.27 44.408 83.79 40.696C87.31 36.92 92.238 35.032 98.574 35.032C102.798 35.032 106.51 36.056 109.71 38.104C112.91 40.152 115.374 43.64 117.102 48.568C118.894 53.496 119.79 60.312 119.79 69.016C119.79 80.216 118.094 88.888 114.702 95.032C111.374 101.176 105.998 104.248 98.574 104.248ZM97.998 68.824C100.43 68.824 102.638 68.632 104.622 68.248C106.606 67.864 108.206 67.48 109.422 67.096C110.638 66.712 111.246 66.52 111.246 66.52C111.246 60.632 110.99 56.12 110.478 52.984C109.966 49.784 109.326 47.512 108.558 46.168C107.854 44.824 107.086 43.928 106.254 43.48C105.294 42.968 104.11 42.584 102.702 42.328C101.358 42.072 99.886 41.944 98.286 41.944C94.958 41.944 92.43 42.488 90.702 43.576C89.038 44.6 87.918 46.2 87.342 48.376C86.766 50.552 86.478 53.304 86.478 56.632C86.478 59 86.702 61.112 87.15 62.968C87.598 64.824 88.622 66.264 90.222 67.288C91.886 68.312 94.478 68.824 97.998 68.824Z" fill="#E4951E"/>
</g>
<defs>
<filter id="filter0_d" x="0" y="0" width="158" height="158" filterUnits="userSpaceOnUse" color-interpolation-filters="sRGB">
<feFlood flood-opacity="0" result="BackgroundImageFix"/>
<feColorMatrix in="SourceAlpha" type="matrix" values="0 0 0 0 0 0 0 0 0 0 0 0 0 0 0 0 0 0 127 0"/>
<feOffset dy="4"/>
<feGaussianBlur stdDeviation="2"/>
<feColorMatrix type="matrix" values="0 0 0 0 0 0 0 0 0 0 0 0 0 0 0 0 0 0 0.25 0"/>
<feBlend mode="normal" in2="BackgroundImageFix" result="effect1_dropShadow"/>
<feBlend mode="normal" in="SourceGraphic" in2="effect1_dropShadow" result="shape"/>
</filter>
</defs>
</svg>
