<svg width="158" height="158" viewBox="0 0 158 158" fill="none" xmlns="http://www.w3.org/2000/svg">
<g filter="url(#filter0_d)">
<circle cx="79" cy="75" r="74" fill="white" stroke="#D7CFCF" stroke-width="2"/>
<path d="M33.376 103V96.76C33.376 96.76 34.848 95.032 37.792 91.576C40.736 88.12 45.024 82.808 50.656 75.64C54.688 70.52 57.984 65.976 60.544 62.008C63.104 57.976 64.384 54.104 64.384 50.392C64.384 47.96 63.712 46.008 62.368 44.536C61.088 43 58.816 42.232 55.552 42.232C52.48 42.232 49.184 42.872 45.664 44.152C42.144 45.432 39.008 46.968 36.256 48.76L32.896 42.712C33.92 41.816 35.456 40.76 37.504 39.544C39.616 38.328 42.08 37.272 44.896 36.376C47.712 35.48 50.656 35.032 53.728 35.032C57.312 35.032 60.48 35.704 63.232 37.048C66.048 38.392 68.256 40.28 69.856 42.712C71.456 45.144 72.256 47.992 72.256 51.256C72.256 54.008 71.68 56.792 70.528 59.608C69.44 62.36 68.032 65.08 66.304 67.768C64.64 70.392 62.88 72.92 61.024 75.352C60.32 76.312 59.328 77.624 58.048 79.288C56.768 80.888 55.392 82.648 53.92 84.568C52.448 86.488 51.04 88.312 49.696 90.04C48.352 91.704 47.232 93.08 46.336 94.168C45.504 95.256 45.088 95.8 45.088 95.8V96.28L73.696 95.8V103H33.376ZM105.425 104.248C102.353 104.248 99.5048 103.736 96.8808 102.712C94.2568 101.688 91.9528 99.928 89.9688 97.432C88.0488 94.872 86.5128 91.352 85.3608 86.872C84.2728 82.328 83.7288 76.536 83.7288 69.496C83.7288 62.52 84.2728 56.792 85.3608 52.312C86.5128 47.832 88.0488 44.344 89.9688 41.848C91.9528 39.288 94.2568 37.528 96.8808 36.568C99.5048 35.544 102.353 35.032 105.425 35.032C108.497 35.032 111.345 35.544 113.969 36.568C116.593 37.528 118.897 39.288 120.881 41.848C122.865 44.344 124.401 47.832 125.489 52.312C126.577 56.792 127.121 62.52 127.121 69.496C127.121 76.536 126.577 82.328 125.489 86.872C124.401 91.352 122.865 94.872 120.881 97.432C118.897 99.928 116.593 101.688 113.969 102.712C111.345 103.736 108.497 104.248 105.425 104.248ZM105.521 96.952C108.465 96.952 110.897 96.216 112.817 94.744C114.801 93.208 116.305 90.456 117.329 86.488C118.353 82.52 118.865 76.856 118.865 69.496C118.865 63.8 118.545 59.16 117.905 55.576C117.329 51.992 116.465 49.24 115.313 47.32C114.161 45.4 112.753 44.088 111.089 43.384C109.425 42.616 107.537 42.232 105.425 42.232C103.313 42.232 101.425 42.584 99.7608 43.288C98.0968 43.992 96.6888 45.304 95.5368 47.224C94.3848 49.144 93.5208 51.896 92.9448 55.48C92.3688 59 92.0807 63.608 92.0807 69.304C92.0807 76.664 92.5608 82.36 93.5208 86.392C94.5448 90.36 96.0488 93.112 98.0328 94.648C100.081 96.184 102.577 96.952 105.521 96.952Z" fill="#E4951E"/>
</g>
<defs>
<filter id="filter0_d" x="0" y="0" width="158" height="158" filterUnits="userSpaceOnUse" color-interpolation-filters="sRGB">
<feFlood flood-opacity="0" result="BackgroundImageFix"/>
<feColorMatrix in="SourceAlpha" type="matrix" values="0 0 0 0 0 0 0 0 0 0 0 0 0 0 0 0 0 0 127 0"/>
<feOffset dy="4"/>
<feGaussianBlur stdDeviation="2"/>
<feColorMatrix type="matrix" values="0 0 0 0 0 0 0 0 0 0 0 0 0 0 0 0 0 0 0.25 0"/>
<feBlend mode="normal" in2="BackgroundImageFix" result="effect1_dropShadow"/>
<feBlend mode="normal" in="SourceGraphic" in2="effect1_dropShadow" result="shape"/>
</filter>
</defs>
</svg>
