<svg width="158" height="158" viewBox="0 0 158 158" fill="none" xmlns="http://www.w3.org/2000/svg">
<g filter="url(#filter0_d)">
<circle cx="79" cy="75" r="74" fill="white" stroke="#D7CFCF" stroke-width="2"/>
<path d="M32.376 103V96.76C32.376 96.76 33.848 95.032 36.792 91.576C39.736 88.12 44.024 82.808 49.656 75.64C53.688 70.52 56.984 65.976 59.544 62.008C62.104 57.976 63.384 54.104 63.384 50.392C63.384 47.96 62.712 46.008 61.368 44.536C60.088 43 57.816 42.232 54.552 42.232C51.48 42.232 48.184 42.872 44.664 44.152C41.144 45.432 38.008 46.968 35.256 48.76L31.896 42.712C32.92 41.816 34.456 40.76 36.504 39.544C38.616 38.328 41.08 37.272 43.896 36.376C46.712 35.48 49.656 35.032 52.728 35.032C56.312 35.032 59.48 35.704 62.232 37.048C65.048 38.392 67.256 40.28 68.856 42.712C70.456 45.144 71.256 47.992 71.256 51.256C71.256 54.008 70.68 56.792 69.528 59.608C68.44 62.36 67.032 65.08 65.304 67.768C63.64 70.392 61.88 72.92 60.024 75.352C59.32 76.312 58.328 77.624 57.048 79.288C55.768 80.888 54.392 82.648 52.92 84.568C51.448 86.488 50.04 88.312 48.696 90.04C47.352 91.704 46.232 93.08 45.336 94.168C44.504 95.256 44.088 95.8 44.088 95.8V96.28L72.696 95.8V103H32.376ZM84.8295 103V96.088L100.862 96.28L101.534 43.576H101.054L86.9415 58.456L81.5655 53.272L100.382 35.608L109.022 36.28V96.28L123.134 96.088V103H84.8295Z" fill="#E4951E"/>
</g>
<defs>
<filter id="filter0_d" x="0" y="0" width="158" height="158" filterUnits="userSpaceOnUse" color-interpolation-filters="sRGB">
<feFlood flood-opacity="0" result="BackgroundImageFix"/>
<feColorMatrix in="SourceAlpha" type="matrix" values="0 0 0 0 0 0 0 0 0 0 0 0 0 0 0 0 0 0 127 0"/>
<feOffset dy="4"/>
<feGaussianBlur stdDeviation="2"/>
<feColorMatrix type="matrix" values="0 0 0 0 0 0 0 0 0 0 0 0 0 0 0 0 0 0 0.25 0"/>
<feBlend mode="normal" in2="BackgroundImageFix" result="effect1_dropShadow"/>
<feBlend mode="normal" in="SourceGraphic" in2="effect1_dropShadow" result="shape"/>
</filter>
</defs>
</svg>
