<svg width="158" height="158" viewBox="0 0 158 158" fill="none" xmlns="http://www.w3.org/2000/svg">
<g filter="url(#filter0_d)">
<circle cx="79" cy="75" r="74" fill="white" stroke="#D7CFCF" stroke-width="2"/>
<path d="M32.376 103V96.76C32.376 96.76 33.848 95.032 36.792 91.576C39.736 88.12 44.024 82.808 49.656 75.64C53.688 70.52 56.984 65.976 59.544 62.008C62.104 57.976 63.384 54.104 63.384 50.392C63.384 47.96 62.712 46.008 61.368 44.536C60.088 43 57.816 42.232 54.552 42.232C51.48 42.232 48.184 42.872 44.664 44.152C41.144 45.432 38.008 46.968 35.256 48.76L31.896 42.712C32.92 41.816 34.456 40.76 36.504 39.544C38.616 38.328 41.08 37.272 43.896 36.376C46.712 35.48 49.656 35.032 52.728 35.032C56.312 35.032 59.48 35.704 62.232 37.048C65.048 38.392 67.256 40.28 68.856 42.712C70.456 45.144 71.256 47.992 71.256 51.256C71.256 54.008 70.68 56.792 69.528 59.608C68.44 62.36 67.032 65.08 65.304 67.768C63.64 70.392 61.88 72.92 60.024 75.352C59.32 76.312 58.328 77.624 57.048 79.288C55.768 80.888 54.392 82.648 52.92 84.568C51.448 86.488 50.04 88.312 48.696 90.04C47.352 91.704 46.232 93.08 45.336 94.168C44.504 95.256 44.088 95.8 44.088 95.8V96.28L72.696 95.8V103H32.376ZM84.2198 103V96.76C84.2198 96.76 85.6918 95.032 88.6358 91.576C91.5798 88.12 95.8678 82.808 101.5 75.64C105.532 70.52 108.828 65.976 111.388 62.008C113.948 57.976 115.228 54.104 115.228 50.392C115.228 47.96 114.556 46.008 113.212 44.536C111.932 43 109.66 42.232 106.396 42.232C103.324 42.232 100.028 42.872 96.5078 44.152C92.9878 45.432 89.8518 46.968 87.0998 48.76L83.7398 42.712C84.7638 41.816 86.2998 40.76 88.3478 39.544C90.4598 38.328 92.9238 37.272 95.7398 36.376C98.5558 35.48 101.5 35.032 104.572 35.032C108.156 35.032 111.324 35.704 114.076 37.048C116.892 38.392 119.1 40.28 120.7 42.712C122.3 45.144 123.1 47.992 123.1 51.256C123.1 54.008 122.524 56.792 121.372 59.608C120.284 62.36 118.876 65.08 117.148 67.768C115.484 70.392 113.724 72.92 111.868 75.352C111.164 76.312 110.172 77.624 108.892 79.288C107.612 80.888 106.236 82.648 104.764 84.568C103.292 86.488 101.884 88.312 100.54 90.04C99.1958 91.704 98.0758 93.08 97.1798 94.168C96.3478 95.256 95.9318 95.8 95.9318 95.8V96.28L124.54 95.8V103H84.2198Z" fill="#E4951E"/>
</g>
<defs>
<filter id="filter0_d" x="0" y="0" width="158" height="158" filterUnits="userSpaceOnUse" color-interpolation-filters="sRGB">
<feFlood flood-opacity="0" result="BackgroundImageFix"/>
<feColorMatrix in="SourceAlpha" type="matrix" values="0 0 0 0 0 0 0 0 0 0 0 0 0 0 0 0 0 0 127 0"/>
<feOffset dy="4"/>
<feGaussianBlur stdDeviation="2"/>
<feColorMatrix type="matrix" values="0 0 0 0 0 0 0 0 0 0 0 0 0 0 0 0 0 0 0.25 0"/>
<feBlend mode="normal" in2="BackgroundImageFix" result="effect1_dropShadow"/>
<feBlend mode="normal" in="SourceGraphic" in2="effect1_dropShadow" result="shape"/>
</filter>
</defs>
</svg>
