<svg width="158" height="158" viewBox="0 0 158 158" fill="none" xmlns="http://www.w3.org/2000/svg">
<g filter="url(#filter0_d)">
<circle cx="79" cy="75" r="74" fill="white" stroke="#D7CFCF" stroke-width="2"/>
<path d="M32.376 103V96.76C32.376 96.76 33.848 95.032 36.792 91.576C39.736 88.12 44.024 82.808 49.656 75.64C53.688 70.52 56.984 65.976 59.544 62.008C62.104 57.976 63.384 54.104 63.384 50.392C63.384 47.96 62.712 46.008 61.368 44.536C60.088 43 57.816 42.232 54.552 42.232C51.48 42.232 48.184 42.872 44.664 44.152C41.144 45.432 38.008 46.968 35.256 48.76L31.896 42.712C32.92 41.816 34.456 40.76 36.504 39.544C38.616 38.328 41.08 37.272 43.896 36.376C46.712 35.48 49.656 35.032 52.728 35.032C56.312 35.032 59.48 35.704 62.232 37.048C65.048 38.392 67.256 40.28 68.856 42.712C70.456 45.144 71.256 47.992 71.256 51.256C71.256 54.008 70.68 56.792 69.528 59.608C68.44 62.36 67.032 65.08 65.304 67.768C63.64 70.392 61.88 72.92 60.024 75.352C59.32 76.312 58.328 77.624 57.048 79.288C55.768 80.888 54.392 82.648 52.92 84.568C51.448 86.488 50.04 88.312 48.696 90.04C47.352 91.704 46.232 93.08 45.336 94.168C44.504 95.256 44.088 95.8 44.088 95.8V96.28L72.696 95.8V103H32.376ZM103.036 104.248C99.3238 104.248 95.9958 103.832 93.0518 103C90.1718 102.232 87.8038 101.4 85.9478 100.504C84.1558 99.544 82.9398 98.904 82.2998 98.584L85.3718 92.44C85.9478 92.696 87.1958 93.208 89.1158 93.976C91.0358 94.744 93.3398 95.448 96.0278 96.088C98.7158 96.728 101.468 97.048 104.284 97.048C108.252 97.048 110.94 96.088 112.348 94.168C113.82 92.184 114.556 89.144 114.556 85.048C114.556 79.672 113.5 75.96 111.388 73.912C109.276 71.864 105.98 70.84 101.5 70.84H92.5718V64.504C96.4758 64.184 99.7398 63.864 102.364 63.544C104.988 63.224 107.068 62.712 108.604 62.008C110.14 61.304 111.228 60.248 111.868 58.84C112.508 57.368 112.828 55.384 112.828 52.888C112.828 48.792 112.156 46.008 110.812 44.536C109.98 43.576 108.636 42.904 106.78 42.52C104.924 42.136 102.652 41.944 99.9638 41.944C98.8118 41.944 97.6598 41.976 96.5078 42.04C95.4198 42.104 94.1078 42.232 92.5718 42.424C91.0998 42.552 89.1798 42.776 86.8118 43.096L85.8518 36.568C87.0038 36.248 88.4118 35.992 90.0758 35.8C91.8038 35.544 93.5958 35.352 95.4518 35.224C97.3718 35.096 99.0998 35.032 100.636 35.032C104.54 35.032 108.028 35.544 111.1 36.568C114.172 37.592 116.604 39.32 118.396 41.752C120.188 44.184 121.084 47.544 121.084 51.832C121.084 54.968 120.636 57.528 119.74 59.512C118.844 61.432 117.756 62.936 116.476 64.024C115.26 65.048 114.076 65.784 112.924 66.232C111.772 66.616 110.908 66.872 110.332 67V67.384C111.612 67.576 112.956 67.96 114.364 68.536C115.836 69.112 117.244 70.04 118.588 71.32C119.932 72.536 121.02 74.2 121.852 76.312C122.684 78.424 123.1 81.112 123.1 84.376C123.1 87.96 122.46 91.256 121.18 94.264C119.9 97.272 117.788 99.704 114.844 101.56C111.9 103.352 107.964 104.248 103.036 104.248Z" fill="#E4951E"/>
</g>
<defs>
<filter id="filter0_d" x="0" y="0" width="158" height="158" filterUnits="userSpaceOnUse" color-interpolation-filters="sRGB">
<feFlood flood-opacity="0" result="BackgroundImageFix"/>
<feColorMatrix in="SourceAlpha" type="matrix" values="0 0 0 0 0 0 0 0 0 0 0 0 0 0 0 0 0 0 127 0"/>
<feOffset dy="4"/>
<feGaussianBlur stdDeviation="2"/>
<feColorMatrix type="matrix" values="0 0 0 0 0 0 0 0 0 0 0 0 0 0 0 0 0 0 0.25 0"/>
<feBlend mode="normal" in2="BackgroundImageFix" result="effect1_dropShadow"/>
<feBlend mode="normal" in="SourceGraphic" in2="effect1_dropShadow" result="shape"/>
</filter>
</defs>
</svg>
