<svg width="158" height="158" viewBox="0 0 158 158" fill="none" xmlns="http://www.w3.org/2000/svg">
<g filter="url(#filter0_d)">
<circle cx="79" cy="75" r="74" fill="white" stroke="#D7CFCF" stroke-width="2"/>
<path d="M32.376 103V96.76C32.376 96.76 33.848 95.032 36.792 91.576C39.736 88.12 44.024 82.808 49.656 75.64C53.688 70.52 56.984 65.976 59.544 62.008C62.104 57.976 63.384 54.104 63.384 50.392C63.384 47.96 62.712 46.008 61.368 44.536C60.088 43 57.816 42.232 54.552 42.232C51.48 42.232 48.184 42.872 44.664 44.152C41.144 45.432 38.008 46.968 35.256 48.76L31.896 42.712C32.92 41.816 34.456 40.76 36.504 39.544C38.616 38.328 41.08 37.272 43.896 36.376C46.712 35.48 49.656 35.032 52.728 35.032C56.312 35.032 59.48 35.704 62.232 37.048C65.048 38.392 67.256 40.28 68.856 42.712C70.456 45.144 71.256 47.992 71.256 51.256C71.256 54.008 70.68 56.792 69.528 59.608C68.44 62.36 67.032 65.08 65.304 67.768C63.64 70.392 61.88 72.92 60.024 75.352C59.32 76.312 58.328 77.624 57.048 79.288C55.768 80.888 54.392 82.648 52.92 84.568C51.448 86.488 50.04 88.312 48.696 90.04C47.352 91.704 46.232 93.08 45.336 94.168C44.504 95.256 44.088 95.8 44.088 95.8V96.28L72.696 95.8V103H32.376ZM101.234 104.248C98.2903 104.248 95.5383 103.896 92.9783 103.192C90.4823 102.488 88.2743 101.688 86.3543 100.792C84.4983 99.832 83.0583 99 82.0343 98.296C81.0103 97.592 80.4983 97.24 80.4983 97.24L83.5703 91.192C83.5703 91.192 84.1143 91.48 85.2023 92.056C86.3543 92.632 87.8263 93.336 89.6183 94.168C91.4743 94.936 93.5223 95.608 95.7623 96.184C98.0023 96.76 100.242 97.048 102.482 97.048C105.49 97.048 107.73 96.568 109.202 95.608C110.418 94.776 111.314 93.208 111.89 90.904C112.53 88.6 112.85 86.328 112.85 84.088C112.85 82.04 112.594 79.96 112.082 77.848C111.634 75.736 110.962 74.264 110.066 73.432C109.042 72.344 106.962 71.608 103.826 71.224C100.69 70.776 96.9783 70.552 92.6903 70.552C90.5783 70.552 88.7863 70.584 87.3143 70.648C85.8423 70.712 85.1063 70.744 85.1063 70.744L90.0023 36.28H118.322V43.288L96.7223 42.904L93.9383 63.352C97.8423 63.544 101.458 63.928 104.786 64.504C108.114 65.08 110.994 66.072 113.426 67.48C115.922 68.888 117.842 70.872 119.186 73.432C120.594 75.928 121.298 79.224 121.298 83.32C121.298 89.912 119.506 95.064 115.922 98.776C112.338 102.424 107.442 104.248 101.234 104.248Z" fill="#E4951E"/>
</g>
<defs>
<filter id="filter0_d" x="0" y="0" width="158" height="158" filterUnits="userSpaceOnUse" color-interpolation-filters="sRGB">
<feFlood flood-opacity="0" result="BackgroundImageFix"/>
<feColorMatrix in="SourceAlpha" type="matrix" values="0 0 0 0 0 0 0 0 0 0 0 0 0 0 0 0 0 0 127 0"/>
<feOffset dy="4"/>
<feGaussianBlur stdDeviation="2"/>
<feColorMatrix type="matrix" values="0 0 0 0 0 0 0 0 0 0 0 0 0 0 0 0 0 0 0.25 0"/>
<feBlend mode="normal" in2="BackgroundImageFix" result="effect1_dropShadow"/>
<feBlend mode="normal" in="SourceGraphic" in2="effect1_dropShadow" result="shape"/>
</filter>
</defs>
</svg>
