<svg width="158" height="158" viewBox="0 0 158 158" fill="none" xmlns="http://www.w3.org/2000/svg">
<g filter="url(#filter0_d)">
<circle cx="79" cy="75" r="74" fill="white" stroke="#D7CFCF" stroke-width="2"/>
<path d="M32.376 103V96.76C32.376 96.76 33.848 95.032 36.792 91.576C39.736 88.12 44.024 82.808 49.656 75.64C53.688 70.52 56.984 65.976 59.544 62.008C62.104 57.976 63.384 54.104 63.384 50.392C63.384 47.96 62.712 46.008 61.368 44.536C60.088 43 57.816 42.232 54.552 42.232C51.48 42.232 48.184 42.872 44.664 44.152C41.144 45.432 38.008 46.968 35.256 48.76L31.896 42.712C32.92 41.816 34.456 40.76 36.504 39.544C38.616 38.328 41.08 37.272 43.896 36.376C46.712 35.48 49.656 35.032 52.728 35.032C56.312 35.032 59.48 35.704 62.232 37.048C65.048 38.392 67.256 40.28 68.856 42.712C70.456 45.144 71.256 47.992 71.256 51.256C71.256 54.008 70.68 56.792 69.528 59.608C68.44 62.36 67.032 65.08 65.304 67.768C63.64 70.392 61.88 72.92 60.024 75.352C59.32 76.312 58.328 77.624 57.048 79.288C55.768 80.888 54.392 82.648 52.92 84.568C51.448 86.488 50.04 88.312 48.696 90.04C47.352 91.704 46.232 93.08 45.336 94.168C44.504 95.256 44.088 95.8 44.088 95.8V96.28L72.696 95.8V103H32.376ZM105.82 104.248C101.404 104.248 97.5958 103.224 94.3958 101.176C91.2598 99.064 88.8278 95.608 87.0998 90.808C85.4358 85.944 84.6038 79.448 84.6038 71.32C84.6038 64.024 85.2438 58.04 86.5238 53.368C87.8678 48.632 89.6598 44.92 91.8998 42.232C94.2038 39.544 96.8598 37.688 99.8678 36.664C102.876 35.576 106.044 35.032 109.372 35.032C112.06 35.032 114.396 35.256 116.38 35.704C118.364 36.088 119.9 36.504 120.988 36.952C122.14 37.336 122.716 37.528 122.716 37.528L120.892 44.344C120.892 44.344 120.22 44.184 118.876 43.864C117.596 43.48 115.964 43.128 113.98 42.808C111.996 42.488 109.916 42.328 107.74 42.328C105.436 42.328 103.548 42.584 102.076 43.096C100.604 43.608 99.3238 44.408 98.2358 45.496C96.8918 46.904 95.7718 49.016 94.8758 51.832C94.0438 54.648 93.4998 58.616 93.2438 63.736C93.2438 63.736 93.7238 63.672 94.6838 63.544C95.7078 63.416 96.9878 63.32 98.5238 63.256C100.124 63.128 101.756 63.064 103.42 63.064C108.028 63.064 112.028 63.704 115.42 64.984C118.812 66.2 121.436 68.248 123.292 71.128C125.148 74.008 126.076 77.912 126.076 82.84C126.076 89.752 124.252 95.064 120.604 98.776C117.02 102.424 112.092 104.248 105.82 104.248ZM106.396 97.432C110.876 97.432 113.948 96.376 115.612 94.264C117.276 92.088 118.108 88.376 118.108 83.128C118.108 79.864 117.756 77.272 117.052 75.352C116.412 73.432 115.164 72.056 113.308 71.224C111.452 70.392 108.796 69.976 105.34 69.976C103.164 69.976 101.148 70.104 99.2918 70.36C97.4358 70.552 95.9318 70.776 94.7798 71.032C93.6278 71.224 93.0518 71.32 93.0518 71.32V79C93.0518 82.584 93.2758 85.464 93.7238 87.64C94.2358 89.816 94.8118 91.448 95.4518 92.536C96.0918 93.56 96.6038 94.296 96.9878 94.744C97.6278 95.32 98.6518 95.928 100.06 96.568C101.468 97.144 103.58 97.432 106.396 97.432Z" fill="#E4951E"/>
</g>
<defs>
<filter id="filter0_d" x="0" y="0" width="158" height="158" filterUnits="userSpaceOnUse" color-interpolation-filters="sRGB">
<feFlood flood-opacity="0" result="BackgroundImageFix"/>
<feColorMatrix in="SourceAlpha" type="matrix" values="0 0 0 0 0 0 0 0 0 0 0 0 0 0 0 0 0 0 127 0"/>
<feOffset dy="4"/>
<feGaussianBlur stdDeviation="2"/>
<feColorMatrix type="matrix" values="0 0 0 0 0 0 0 0 0 0 0 0 0 0 0 0 0 0 0.25 0"/>
<feBlend mode="normal" in2="BackgroundImageFix" result="effect1_dropShadow"/>
<feBlend mode="normal" in="SourceGraphic" in2="effect1_dropShadow" result="shape"/>
</filter>
</defs>
</svg>
