<svg width="158" height="158" viewBox="0 0 158 158" fill="none" xmlns="http://www.w3.org/2000/svg">
<g filter="url(#filter0_d)">
<circle cx="79" cy="75" r="74" fill="white" stroke="#D7CFCF" stroke-width="2"/>
<path d="M33.376 103V96.76C33.376 96.76 34.848 95.032 37.792 91.576C40.736 88.12 45.024 82.808 50.656 75.64C54.688 70.52 57.984 65.976 60.544 62.008C63.104 57.976 64.384 54.104 64.384 50.392C64.384 47.96 63.712 46.008 62.368 44.536C61.088 43 58.816 42.232 55.552 42.232C52.48 42.232 49.184 42.872 45.664 44.152C42.144 45.432 39.008 46.968 36.256 48.76L32.896 42.712C33.92 41.816 35.456 40.76 37.504 39.544C39.616 38.328 42.08 37.272 44.896 36.376C47.712 35.48 50.656 35.032 53.728 35.032C57.312 35.032 60.48 35.704 63.232 37.048C66.048 38.392 68.256 40.28 69.856 42.712C71.456 45.144 72.256 47.992 72.256 51.256C72.256 54.008 71.68 56.792 70.528 59.608C69.44 62.36 68.032 65.08 66.304 67.768C64.64 70.392 62.88 72.92 61.024 75.352C60.32 76.312 59.328 77.624 58.048 79.288C56.768 80.888 55.392 82.648 53.92 84.568C52.448 86.488 51.04 88.312 49.696 90.04C48.352 91.704 47.232 93.08 46.336 94.168C45.504 95.256 45.088 95.8 45.088 95.8V96.28L73.696 95.8V103H33.376ZM105.38 104.248C100.772 104.248 96.8998 103.32 93.7638 101.464C90.6278 99.544 88.2598 97.08 86.6598 94.072C85.1238 91.064 84.3558 87.96 84.3558 84.76C84.3558 81.944 84.8998 79.416 85.9878 77.176C87.1398 74.872 88.5798 72.92 90.3078 71.32C92.0358 69.72 93.7638 68.568 95.4918 67.864C93.1238 66.136 91.0118 63.992 89.1558 61.432C87.2998 58.808 86.3718 55.576 86.3718 51.736C86.3718 46.872 88.0038 42.872 91.2678 39.736C94.5318 36.6 99.3318 35.032 105.668 35.032C110.02 35.032 113.636 35.8 116.516 37.336C119.396 38.808 121.54 40.824 122.948 43.384C124.356 45.88 125.06 48.696 125.06 51.832C125.06 56.12 124.068 59.576 122.084 62.2C120.164 64.824 117.796 66.936 114.98 68.536C116.644 69.496 118.404 70.68 120.26 72.088C122.116 73.496 123.716 75.288 125.06 77.464C126.404 79.576 127.076 82.264 127.076 85.528C127.076 88.792 126.212 91.864 124.484 94.744C122.82 97.56 120.356 99.864 117.092 101.656C113.892 103.384 109.988 104.248 105.38 104.248ZM107.396 65.272C110.404 64.184 112.74 62.616 114.404 60.568C116.068 58.52 116.9 55.64 116.9 51.928C116.9 48.856 116.068 46.392 114.404 44.536C112.804 42.616 109.924 41.656 105.764 41.656C101.412 41.656 98.4358 42.52 96.8358 44.248C95.2358 45.912 94.4358 48.12 94.4358 50.872C94.4358 54.2 95.4278 56.984 97.4118 59.224C99.3958 61.4 102.724 63.416 107.396 65.272ZM105.668 97.336C110.084 97.336 113.284 96.408 115.268 94.552C117.316 92.632 118.34 90.008 118.34 86.68C118.34 84.12 117.828 81.976 116.804 80.248C115.844 78.52 114.244 76.984 112.004 75.64C109.764 74.296 106.756 72.984 102.98 71.704C99.8438 72.92 97.4118 74.488 95.6838 76.408C93.9558 78.264 93.0918 81.304 93.0918 85.528C93.0918 87.704 93.4758 89.688 94.2438 91.48C95.0118 93.272 96.3238 94.712 98.1798 95.8C100.036 96.824 102.532 97.336 105.668 97.336Z" fill="#E4951E"/>
</g>
<defs>
<filter id="filter0_d" x="0" y="0" width="158" height="158" filterUnits="userSpaceOnUse" color-interpolation-filters="sRGB">
<feFlood flood-opacity="0" result="BackgroundImageFix"/>
<feColorMatrix in="SourceAlpha" type="matrix" values="0 0 0 0 0 0 0 0 0 0 0 0 0 0 0 0 0 0 127 0"/>
<feOffset dy="4"/>
<feGaussianBlur stdDeviation="2"/>
<feColorMatrix type="matrix" values="0 0 0 0 0 0 0 0 0 0 0 0 0 0 0 0 0 0 0.25 0"/>
<feBlend mode="normal" in2="BackgroundImageFix" result="effect1_dropShadow"/>
<feBlend mode="normal" in="SourceGraphic" in2="effect1_dropShadow" result="shape"/>
</filter>
</defs>
</svg>
