<svg width="158" height="158" viewBox="0 0 158 158" fill="none" xmlns="http://www.w3.org/2000/svg">
<g filter="url(#filter0_d)">
<circle cx="79" cy="75" r="74" fill="white" stroke="#D7CFCF" stroke-width="2"/>
<path d="M32.376 103V96.76C32.376 96.76 33.848 95.032 36.792 91.576C39.736 88.12 44.024 82.808 49.656 75.64C53.688 70.52 56.984 65.976 59.544 62.008C62.104 57.976 63.384 54.104 63.384 50.392C63.384 47.96 62.712 46.008 61.368 44.536C60.088 43 57.816 42.232 54.552 42.232C51.48 42.232 48.184 42.872 44.664 44.152C41.144 45.432 38.008 46.968 35.256 48.76L31.896 42.712C32.92 41.816 34.456 40.76 36.504 39.544C38.616 38.328 41.08 37.272 43.896 36.376C46.712 35.48 49.656 35.032 52.728 35.032C56.312 35.032 59.48 35.704 62.232 37.048C65.048 38.392 67.256 40.28 68.856 42.712C70.456 45.144 71.256 47.992 71.256 51.256C71.256 54.008 70.68 56.792 69.528 59.608C68.44 62.36 67.032 65.08 65.304 67.768C63.64 70.392 61.88 72.92 60.024 75.352C59.32 76.312 58.328 77.624 57.048 79.288C55.768 80.888 54.392 82.648 52.92 84.568C51.448 86.488 50.04 88.312 48.696 90.04C47.352 91.704 46.232 93.08 45.336 94.168C44.504 95.256 44.088 95.8 44.088 95.8V96.28L72.696 95.8V103H32.376ZM104.668 104.248C102.172 104.248 99.8038 103.96 97.5638 103.384C95.3878 102.808 93.4678 102.136 91.8038 101.368C90.1398 100.536 88.8278 99.832 87.8678 99.256C86.9078 98.68 86.4278 98.392 86.4278 98.392L89.4038 92.344C89.4038 92.344 89.8518 92.6 90.7478 93.112C91.6438 93.624 92.8598 94.232 94.3958 94.936C95.9318 95.576 97.6598 96.152 99.5798 96.664C101.5 97.176 103.484 97.432 105.532 97.432C107.196 97.432 108.54 97.24 109.564 96.856C110.588 96.408 111.452 95.8 112.156 95.032C113.564 93.56 114.78 91.064 115.804 87.544C116.828 83.96 117.34 79.672 117.34 74.68C117.34 74.68 116.668 74.808 115.324 75.064C113.98 75.32 112.316 75.576 110.332 75.832C108.412 76.024 106.46 76.12 104.476 76.12C98.5238 76.12 93.7238 74.584 90.0758 71.512C86.4278 68.376 84.6038 63.32 84.6038 56.344C84.6038 49.624 86.3638 44.408 89.8838 40.696C93.4038 36.92 98.3318 35.032 104.668 35.032C108.892 35.032 112.604 36.056 115.804 38.104C119.004 40.152 121.468 43.64 123.196 48.568C124.988 53.496 125.884 60.312 125.884 69.016C125.884 80.216 124.188 88.888 120.796 95.032C117.468 101.176 112.092 104.248 104.668 104.248ZM104.092 68.824C106.524 68.824 108.732 68.632 110.716 68.248C112.7 67.864 114.3 67.48 115.516 67.096C116.732 66.712 117.34 66.52 117.34 66.52C117.34 60.632 117.084 56.12 116.572 52.984C116.06 49.784 115.42 47.512 114.652 46.168C113.948 44.824 113.18 43.928 112.348 43.48C111.388 42.968 110.204 42.584 108.796 42.328C107.452 42.072 105.98 41.944 104.38 41.944C101.052 41.944 98.5238 42.488 96.7958 43.576C95.1318 44.6 94.0118 46.2 93.4358 48.376C92.8598 50.552 92.5718 53.304 92.5718 56.632C92.5718 59 92.7958 61.112 93.2438 62.968C93.6918 64.824 94.7158 66.264 96.3158 67.288C97.9798 68.312 100.572 68.824 104.092 68.824Z" fill="#E4951E"/>
</g>
<defs>
<filter id="filter0_d" x="0" y="0" width="158" height="158" filterUnits="userSpaceOnUse" color-interpolation-filters="sRGB">
<feFlood flood-opacity="0" result="BackgroundImageFix"/>
<feColorMatrix in="SourceAlpha" type="matrix" values="0 0 0 0 0 0 0 0 0 0 0 0 0 0 0 0 0 0 127 0"/>
<feOffset dy="4"/>
<feGaussianBlur stdDeviation="2"/>
<feColorMatrix type="matrix" values="0 0 0 0 0 0 0 0 0 0 0 0 0 0 0 0 0 0 0.25 0"/>
<feBlend mode="normal" in2="BackgroundImageFix" result="effect1_dropShadow"/>
<feBlend mode="normal" in="SourceGraphic" in2="effect1_dropShadow" result="shape"/>
</filter>
</defs>
</svg>
