<svg width="158" height="158" viewBox="0 0 158 158" fill="none" xmlns="http://www.w3.org/2000/svg">
<g filter="url(#filter0_d)">
<circle cx="79" cy="75" r="74" fill="white" stroke="#D7CFCF" stroke-width="2"/>
<path d="M74.192 104.248C70.48 104.248 67.152 103.832 64.208 103C61.328 102.232 58.96 101.4 57.104 100.504C55.312 99.544 54.096 98.904 53.456 98.584L56.528 92.44C57.104 92.696 58.352 93.208 60.272 93.976C62.192 94.744 64.496 95.448 67.184 96.088C69.872 96.728 72.624 97.048 75.44 97.048C79.408 97.048 82.096 96.088 83.504 94.168C84.976 92.184 85.712 89.144 85.712 85.048C85.712 79.672 84.656 75.96 82.544 73.912C80.432 71.864 77.136 70.84 72.656 70.84H63.728V64.504C67.632 64.184 70.896 63.864 73.52 63.544C76.144 63.224 78.224 62.712 79.76 62.008C81.296 61.304 82.384 60.248 83.024 58.84C83.664 57.368 83.984 55.384 83.984 52.888C83.984 48.792 83.312 46.008 81.968 44.536C81.136 43.576 79.792 42.904 77.936 42.52C76.08 42.136 73.808 41.944 71.12 41.944C69.968 41.944 68.816 41.976 67.664 42.04C66.576 42.104 65.264 42.232 63.728 42.424C62.256 42.552 60.336 42.776 57.968 43.096L57.008 36.568C58.16 36.248 59.568 35.992 61.232 35.8C62.96 35.544 64.752 35.352 66.608 35.224C68.528 35.096 70.256 35.032 71.792 35.032C75.696 35.032 79.184 35.544 82.256 36.568C85.328 37.592 87.76 39.32 89.552 41.752C91.344 44.184 92.24 47.544 92.24 51.832C92.24 54.968 91.792 57.528 90.896 59.512C90 61.432 88.912 62.936 87.632 64.024C86.416 65.048 85.232 65.784 84.08 66.232C82.928 66.616 82.064 66.872 81.488 67V67.384C82.768 67.576 84.112 67.96 85.52 68.536C86.992 69.112 88.4 70.04 89.744 71.32C91.088 72.536 92.176 74.2 93.008 76.312C93.84 78.424 94.256 81.112 94.256 84.376C94.256 87.96 93.616 91.256 92.336 94.264C91.056 97.272 88.944 99.704 86 101.56C83.056 103.352 79.12 104.248 74.192 104.248Z" fill="#E4951E"/>
</g>
<defs>
<filter id="filter0_d" x="0" y="0" width="158" height="158" filterUnits="userSpaceOnUse" color-interpolation-filters="sRGB">
<feFlood flood-opacity="0" result="BackgroundImageFix"/>
<feColorMatrix in="SourceAlpha" type="matrix" values="0 0 0 0 0 0 0 0 0 0 0 0 0 0 0 0 0 0 127 0"/>
<feOffset dy="4"/>
<feGaussianBlur stdDeviation="2"/>
<feColorMatrix type="matrix" values="0 0 0 0 0 0 0 0 0 0 0 0 0 0 0 0 0 0 0.25 0"/>
<feBlend mode="normal" in2="BackgroundImageFix" result="effect1_dropShadow"/>
<feBlend mode="normal" in="SourceGraphic" in2="effect1_dropShadow" result="shape"/>
</filter>
</defs>
</svg>
