<svg width="158" height="158" viewBox="0 0 158 158" fill="none" xmlns="http://www.w3.org/2000/svg">
<g filter="url(#filter0_d)">
<circle cx="79" cy="75" r="74" fill="white" stroke="#D7CFCF" stroke-width="2"/>
<path d="M51.192 104.248C47.48 104.248 44.152 103.832 41.208 103C38.328 102.232 35.96 101.4 34.104 100.504C32.312 99.544 31.096 98.904 30.456 98.584L33.528 92.44C34.104 92.696 35.352 93.208 37.272 93.976C39.192 94.744 41.496 95.448 44.184 96.088C46.872 96.728 49.624 97.048 52.44 97.048C56.408 97.048 59.096 96.088 60.504 94.168C61.976 92.184 62.712 89.144 62.712 85.048C62.712 79.672 61.656 75.96 59.544 73.912C57.432 71.864 54.136 70.84 49.656 70.84H40.728V64.504C44.632 64.184 47.896 63.864 50.52 63.544C53.144 63.224 55.224 62.712 56.76 62.008C58.296 61.304 59.384 60.248 60.024 58.84C60.664 57.368 60.984 55.384 60.984 52.888C60.984 48.792 60.312 46.008 58.968 44.536C58.136 43.576 56.792 42.904 54.936 42.52C53.08 42.136 50.808 41.944 48.12 41.944C46.968 41.944 45.816 41.976 44.664 42.04C43.576 42.104 42.264 42.232 40.728 42.424C39.256 42.552 37.336 42.776 34.968 43.096L34.008 36.568C35.16 36.248 36.568 35.992 38.232 35.8C39.96 35.544 41.752 35.352 43.608 35.224C45.528 35.096 47.256 35.032 48.792 35.032C52.696 35.032 56.184 35.544 59.256 36.568C62.328 37.592 64.76 39.32 66.552 41.752C68.344 44.184 69.24 47.544 69.24 51.832C69.24 54.968 68.792 57.528 67.896 59.512C67 61.432 65.912 62.936 64.632 64.024C63.416 65.048 62.232 65.784 61.08 66.232C59.928 66.616 59.064 66.872 58.488 67V67.384C59.768 67.576 61.112 67.96 62.52 68.536C63.992 69.112 65.4 70.04 66.744 71.32C68.088 72.536 69.176 74.2 70.008 76.312C70.84 78.424 71.256 81.112 71.256 84.376C71.256 87.96 70.616 91.256 69.336 94.264C68.056 97.272 65.944 99.704 63 101.56C60.056 103.352 56.12 104.248 51.192 104.248ZM106.769 104.248C103.697 104.248 100.849 103.736 98.2245 102.712C95.6005 101.688 93.2965 99.928 91.3125 97.432C89.3925 94.872 87.8565 91.352 86.7045 86.872C85.6165 82.328 85.0725 76.536 85.0725 69.496C85.0725 62.52 85.6165 56.792 86.7045 52.312C87.8565 47.832 89.3925 44.344 91.3125 41.848C93.2965 39.288 95.6005 37.528 98.2245 36.568C100.849 35.544 103.697 35.032 106.769 35.032C109.841 35.032 112.689 35.544 115.313 36.568C117.937 37.528 120.241 39.288 122.225 41.848C124.209 44.344 125.745 47.832 126.833 52.312C127.921 56.792 128.465 62.52 128.465 69.496C128.465 76.536 127.921 82.328 126.833 86.872C125.745 91.352 124.209 94.872 122.225 97.432C120.241 99.928 117.937 101.688 115.313 102.712C112.689 103.736 109.841 104.248 106.769 104.248ZM106.865 96.952C109.809 96.952 112.241 96.216 114.161 94.744C116.145 93.208 117.649 90.456 118.673 86.488C119.697 82.52 120.209 76.856 120.209 69.496C120.209 63.8 119.889 59.16 119.249 55.576C118.673 51.992 117.809 49.24 116.657 47.32C115.505 45.4 114.097 44.088 112.433 43.384C110.769 42.616 108.881 42.232 106.769 42.232C104.657 42.232 102.769 42.584 101.105 43.288C99.4405 43.992 98.0325 45.304 96.8805 47.224C95.7285 49.144 94.8645 51.896 94.2885 55.48C93.7125 59 93.4245 63.608 93.4245 69.304C93.4245 76.664 93.9045 82.36 94.8645 86.392C95.8885 90.36 97.3925 93.112 99.3765 94.648C101.425 96.184 103.921 96.952 106.865 96.952Z" fill="#E4951E"/>
</g>
<defs>
<filter id="filter0_d" x="0" y="0" width="158" height="158" filterUnits="userSpaceOnUse" color-interpolation-filters="sRGB">
<feFlood flood-opacity="0" result="BackgroundImageFix"/>
<feColorMatrix in="SourceAlpha" type="matrix" values="0 0 0 0 0 0 0 0 0 0 0 0 0 0 0 0 0 0 127 0"/>
<feOffset dy="4"/>
<feGaussianBlur stdDeviation="2"/>
<feColorMatrix type="matrix" values="0 0 0 0 0 0 0 0 0 0 0 0 0 0 0 0 0 0 0.25 0"/>
<feBlend mode="normal" in2="BackgroundImageFix" result="effect1_dropShadow"/>
<feBlend mode="normal" in="SourceGraphic" in2="effect1_dropShadow" result="shape"/>
</filter>
</defs>
</svg>
