<svg width="158" height="158" viewBox="0 0 158 158" fill="none" xmlns="http://www.w3.org/2000/svg">
<g filter="url(#filter0_d)">
<circle cx="79" cy="75" r="74" fill="white" stroke="#D7CFCF" stroke-width="2"/>
<path d="M51.192 104.248C47.48 104.248 44.152 103.832 41.208 103C38.328 102.232 35.96 101.4 34.104 100.504C32.312 99.544 31.096 98.904 30.456 98.584L33.528 92.44C34.104 92.696 35.352 93.208 37.272 93.976C39.192 94.744 41.496 95.448 44.184 96.088C46.872 96.728 49.624 97.048 52.44 97.048C56.408 97.048 59.096 96.088 60.504 94.168C61.976 92.184 62.712 89.144 62.712 85.048C62.712 79.672 61.656 75.96 59.544 73.912C57.432 71.864 54.136 70.84 49.656 70.84H40.728V64.504C44.632 64.184 47.896 63.864 50.52 63.544C53.144 63.224 55.224 62.712 56.76 62.008C58.296 61.304 59.384 60.248 60.024 58.84C60.664 57.368 60.984 55.384 60.984 52.888C60.984 48.792 60.312 46.008 58.968 44.536C58.136 43.576 56.792 42.904 54.936 42.52C53.08 42.136 50.808 41.944 48.12 41.944C46.968 41.944 45.816 41.976 44.664 42.04C43.576 42.104 42.264 42.232 40.728 42.424C39.256 42.552 37.336 42.776 34.968 43.096L34.008 36.568C35.16 36.248 36.568 35.992 38.232 35.8C39.96 35.544 41.752 35.352 43.608 35.224C45.528 35.096 47.256 35.032 48.792 35.032C52.696 35.032 56.184 35.544 59.256 36.568C62.328 37.592 64.76 39.32 66.552 41.752C68.344 44.184 69.24 47.544 69.24 51.832C69.24 54.968 68.792 57.528 67.896 59.512C67 61.432 65.912 62.936 64.632 64.024C63.416 65.048 62.232 65.784 61.08 66.232C59.928 66.616 59.064 66.872 58.488 67V67.384C59.768 67.576 61.112 67.96 62.52 68.536C63.992 69.112 65.4 70.04 66.744 71.32C68.088 72.536 69.176 74.2 70.008 76.312C70.84 78.424 71.256 81.112 71.256 84.376C71.256 87.96 70.616 91.256 69.336 94.264C68.056 97.272 65.944 99.704 63 101.56C60.056 103.352 56.12 104.248 51.192 104.248ZM103.505 104.248C99.7925 104.248 96.4645 103.832 93.5205 103C90.6405 102.232 88.2725 101.4 86.4165 100.504C84.6245 99.544 83.4085 98.904 82.7685 98.584L85.8405 92.44C86.4165 92.696 87.6645 93.208 89.5845 93.976C91.5045 94.744 93.8085 95.448 96.4965 96.088C99.1845 96.728 101.937 97.048 104.753 97.048C108.721 97.048 111.409 96.088 112.817 94.168C114.289 92.184 115.025 89.144 115.025 85.048C115.025 79.672 113.969 75.96 111.857 73.912C109.745 71.864 106.449 70.84 101.969 70.84H93.0405V64.504C96.9445 64.184 100.209 63.864 102.833 63.544C105.457 63.224 107.537 62.712 109.073 62.008C110.609 61.304 111.697 60.248 112.337 58.84C112.977 57.368 113.297 55.384 113.297 52.888C113.297 48.792 112.625 46.008 111.281 44.536C110.449 43.576 109.105 42.904 107.249 42.52C105.393 42.136 103.121 41.944 100.433 41.944C99.2805 41.944 98.1285 41.976 96.9765 42.04C95.8885 42.104 94.5765 42.232 93.0405 42.424C91.5685 42.552 89.6485 42.776 87.2805 43.096L86.3205 36.568C87.4725 36.248 88.8805 35.992 90.5445 35.8C92.2725 35.544 94.0645 35.352 95.9205 35.224C97.8405 35.096 99.5685 35.032 101.105 35.032C105.009 35.032 108.497 35.544 111.569 36.568C114.641 37.592 117.073 39.32 118.865 41.752C120.657 44.184 121.553 47.544 121.553 51.832C121.553 54.968 121.105 57.528 120.209 59.512C119.313 61.432 118.225 62.936 116.945 64.024C115.729 65.048 114.545 65.784 113.393 66.232C112.241 66.616 111.377 66.872 110.801 67V67.384C112.081 67.576 113.425 67.96 114.833 68.536C116.305 69.112 117.713 70.04 119.057 71.32C120.401 72.536 121.489 74.2 122.321 76.312C123.153 78.424 123.569 81.112 123.569 84.376C123.569 87.96 122.929 91.256 121.649 94.264C120.369 97.272 118.257 99.704 115.313 101.56C112.369 103.352 108.433 104.248 103.505 104.248Z" fill="#E4951E"/>
</g>
<defs>
<filter id="filter0_d" x="0" y="0" width="158" height="158" filterUnits="userSpaceOnUse" color-interpolation-filters="sRGB">
<feFlood flood-opacity="0" result="BackgroundImageFix"/>
<feColorMatrix in="SourceAlpha" type="matrix" values="0 0 0 0 0 0 0 0 0 0 0 0 0 0 0 0 0 0 127 0"/>
<feOffset dy="4"/>
<feGaussianBlur stdDeviation="2"/>
<feColorMatrix type="matrix" values="0 0 0 0 0 0 0 0 0 0 0 0 0 0 0 0 0 0 0.25 0"/>
<feBlend mode="normal" in2="BackgroundImageFix" result="effect1_dropShadow"/>
<feBlend mode="normal" in="SourceGraphic" in2="effect1_dropShadow" result="shape"/>
</filter>
</defs>
</svg>
