<svg width="158" height="158" viewBox="0 0 158 158" fill="none" xmlns="http://www.w3.org/2000/svg">
<g filter="url(#filter0_d)">
<circle cx="79" cy="75" r="74" fill="white" stroke="#D7CFCF" stroke-width="2"/>
<path d="M51.192 104.248C47.48 104.248 44.152 103.832 41.208 103C38.328 102.232 35.96 101.4 34.104 100.504C32.312 99.544 31.096 98.904 30.456 98.584L33.528 92.44C34.104 92.696 35.352 93.208 37.272 93.976C39.192 94.744 41.496 95.448 44.184 96.088C46.872 96.728 49.624 97.048 52.44 97.048C56.408 97.048 59.096 96.088 60.504 94.168C61.976 92.184 62.712 89.144 62.712 85.048C62.712 79.672 61.656 75.96 59.544 73.912C57.432 71.864 54.136 70.84 49.656 70.84H40.728V64.504C44.632 64.184 47.896 63.864 50.52 63.544C53.144 63.224 55.224 62.712 56.76 62.008C58.296 61.304 59.384 60.248 60.024 58.84C60.664 57.368 60.984 55.384 60.984 52.888C60.984 48.792 60.312 46.008 58.968 44.536C58.136 43.576 56.792 42.904 54.936 42.52C53.08 42.136 50.808 41.944 48.12 41.944C46.968 41.944 45.816 41.976 44.664 42.04C43.576 42.104 42.264 42.232 40.728 42.424C39.256 42.552 37.336 42.776 34.968 43.096L34.008 36.568C35.16 36.248 36.568 35.992 38.232 35.8C39.96 35.544 41.752 35.352 43.608 35.224C45.528 35.096 47.256 35.032 48.792 35.032C52.696 35.032 56.184 35.544 59.256 36.568C62.328 37.592 64.76 39.32 66.552 41.752C68.344 44.184 69.24 47.544 69.24 51.832C69.24 54.968 68.792 57.528 67.896 59.512C67 61.432 65.912 62.936 64.632 64.024C63.416 65.048 62.232 65.784 61.08 66.232C59.928 66.616 59.064 66.872 58.488 67V67.384C59.768 67.576 61.112 67.96 62.52 68.536C63.992 69.112 65.4 70.04 66.744 71.32C68.088 72.536 69.176 74.2 70.008 76.312C70.84 78.424 71.256 81.112 71.256 84.376C71.256 87.96 70.616 91.256 69.336 94.264C68.056 97.272 65.944 99.704 63 101.56C60.056 103.352 56.12 104.248 51.192 104.248ZM111.953 103L112.241 87.448H82.0965V81.4L97.2645 35.224L105.137 36.28L90.6405 80.248V80.728L112.241 80.344L114.065 54.52H120.017V80.344L126.161 80.152V87.448H120.017L120.113 103H111.953Z" fill="#E4951E"/>
</g>
<defs>
<filter id="filter0_d" x="0" y="0" width="158" height="158" filterUnits="userSpaceOnUse" color-interpolation-filters="sRGB">
<feFlood flood-opacity="0" result="BackgroundImageFix"/>
<feColorMatrix in="SourceAlpha" type="matrix" values="0 0 0 0 0 0 0 0 0 0 0 0 0 0 0 0 0 0 127 0"/>
<feOffset dy="4"/>
<feGaussianBlur stdDeviation="2"/>
<feColorMatrix type="matrix" values="0 0 0 0 0 0 0 0 0 0 0 0 0 0 0 0 0 0 0.25 0"/>
<feBlend mode="normal" in2="BackgroundImageFix" result="effect1_dropShadow"/>
<feBlend mode="normal" in="SourceGraphic" in2="effect1_dropShadow" result="shape"/>
</filter>
</defs>
</svg>
