<svg width="158" height="158" viewBox="0 0 158 158" fill="none" xmlns="http://www.w3.org/2000/svg">
<g filter="url(#filter0_d)">
<circle cx="79" cy="75" r="74" fill="white" stroke="#D7CFCF" stroke-width="2"/>
<path d="M51.192 104.248C47.48 104.248 44.152 103.832 41.208 103C38.328 102.232 35.96 101.4 34.104 100.504C32.312 99.544 31.096 98.904 30.456 98.584L33.528 92.44C34.104 92.696 35.352 93.208 37.272 93.976C39.192 94.744 41.496 95.448 44.184 96.088C46.872 96.728 49.624 97.048 52.44 97.048C56.408 97.048 59.096 96.088 60.504 94.168C61.976 92.184 62.712 89.144 62.712 85.048C62.712 79.672 61.656 75.96 59.544 73.912C57.432 71.864 54.136 70.84 49.656 70.84H40.728V64.504C44.632 64.184 47.896 63.864 50.52 63.544C53.144 63.224 55.224 62.712 56.76 62.008C58.296 61.304 59.384 60.248 60.024 58.84C60.664 57.368 60.984 55.384 60.984 52.888C60.984 48.792 60.312 46.008 58.968 44.536C58.136 43.576 56.792 42.904 54.936 42.52C53.08 42.136 50.808 41.944 48.12 41.944C46.968 41.944 45.816 41.976 44.664 42.04C43.576 42.104 42.264 42.232 40.728 42.424C39.256 42.552 37.336 42.776 34.968 43.096L34.008 36.568C35.16 36.248 36.568 35.992 38.232 35.8C39.96 35.544 41.752 35.352 43.608 35.224C45.528 35.096 47.256 35.032 48.792 35.032C52.696 35.032 56.184 35.544 59.256 36.568C62.328 37.592 64.76 39.32 66.552 41.752C68.344 44.184 69.24 47.544 69.24 51.832C69.24 54.968 68.792 57.528 67.896 59.512C67 61.432 65.912 62.936 64.632 64.024C63.416 65.048 62.232 65.784 61.08 66.232C59.928 66.616 59.064 66.872 58.488 67V67.384C59.768 67.576 61.112 67.96 62.52 68.536C63.992 69.112 65.4 70.04 66.744 71.32C68.088 72.536 69.176 74.2 70.008 76.312C70.84 78.424 71.256 81.112 71.256 84.376C71.256 87.96 70.616 91.256 69.336 94.264C68.056 97.272 65.944 99.704 63 101.56C60.056 103.352 56.12 104.248 51.192 104.248ZM106.289 104.248C101.873 104.248 98.0645 103.224 94.8645 101.176C91.7285 99.064 89.2965 95.608 87.5685 90.808C85.9045 85.944 85.0725 79.448 85.0725 71.32C85.0725 64.024 85.7125 58.04 86.9925 53.368C88.3365 48.632 90.1285 44.92 92.3685 42.232C94.6725 39.544 97.3285 37.688 100.337 36.664C103.345 35.576 106.513 35.032 109.841 35.032C112.529 35.032 114.865 35.256 116.849 35.704C118.833 36.088 120.369 36.504 121.457 36.952C122.609 37.336 123.185 37.528 123.185 37.528L121.361 44.344C121.361 44.344 120.689 44.184 119.345 43.864C118.065 43.48 116.433 43.128 114.449 42.808C112.465 42.488 110.385 42.328 108.209 42.328C105.905 42.328 104.017 42.584 102.545 43.096C101.073 43.608 99.7925 44.408 98.7045 45.496C97.3605 46.904 96.2405 49.016 95.3445 51.832C94.5125 54.648 93.9685 58.616 93.7125 63.736C93.7125 63.736 94.1925 63.672 95.1525 63.544C96.1765 63.416 97.4565 63.32 98.9925 63.256C100.593 63.128 102.225 63.064 103.889 63.064C108.497 63.064 112.497 63.704 115.889 64.984C119.281 66.2 121.905 68.248 123.761 71.128C125.617 74.008 126.545 77.912 126.545 82.84C126.545 89.752 124.721 95.064 121.073 98.776C117.489 102.424 112.561 104.248 106.289 104.248ZM106.865 97.432C111.345 97.432 114.417 96.376 116.081 94.264C117.745 92.088 118.577 88.376 118.577 83.128C118.577 79.864 118.225 77.272 117.521 75.352C116.881 73.432 115.633 72.056 113.777 71.224C111.921 70.392 109.265 69.976 105.809 69.976C103.633 69.976 101.617 70.104 99.7605 70.36C97.9045 70.552 96.4005 70.776 95.2485 71.032C94.0965 71.224 93.5205 71.32 93.5205 71.32V79C93.5205 82.584 93.7445 85.464 94.1925 87.64C94.7045 89.816 95.2805 91.448 95.9205 92.536C96.5605 93.56 97.0725 94.296 97.4565 94.744C98.0965 95.32 99.1205 95.928 100.529 96.568C101.937 97.144 104.049 97.432 106.865 97.432Z" fill="#E4951E"/>
</g>
<defs>
<filter id="filter0_d" x="0" y="0" width="158" height="158" filterUnits="userSpaceOnUse" color-interpolation-filters="sRGB">
<feFlood flood-opacity="0" result="BackgroundImageFix"/>
<feColorMatrix in="SourceAlpha" type="matrix" values="0 0 0 0 0 0 0 0 0 0 0 0 0 0 0 0 0 0 127 0"/>
<feOffset dy="4"/>
<feGaussianBlur stdDeviation="2"/>
<feColorMatrix type="matrix" values="0 0 0 0 0 0 0 0 0 0 0 0 0 0 0 0 0 0 0.25 0"/>
<feBlend mode="normal" in2="BackgroundImageFix" result="effect1_dropShadow"/>
<feBlend mode="normal" in="SourceGraphic" in2="effect1_dropShadow" result="shape"/>
</filter>
</defs>
</svg>
