<svg width="158" height="158" viewBox="0 0 158 158" fill="none" xmlns="http://www.w3.org/2000/svg">
<g filter="url(#filter0_d)">
<circle cx="79" cy="75" r="74" fill="white" stroke="#D7CFCF" stroke-width="2"/>
<path d="M52.192 104.248C48.48 104.248 45.152 103.832 42.208 103C39.328 102.232 36.96 101.4 35.104 100.504C33.312 99.544 32.096 98.904 31.456 98.584L34.528 92.44C35.104 92.696 36.352 93.208 38.272 93.976C40.192 94.744 42.496 95.448 45.184 96.088C47.872 96.728 50.624 97.048 53.44 97.048C57.408 97.048 60.096 96.088 61.504 94.168C62.976 92.184 63.712 89.144 63.712 85.048C63.712 79.672 62.656 75.96 60.544 73.912C58.432 71.864 55.136 70.84 50.656 70.84H41.728V64.504C45.632 64.184 48.896 63.864 51.52 63.544C54.144 63.224 56.224 62.712 57.76 62.008C59.296 61.304 60.384 60.248 61.024 58.84C61.664 57.368 61.984 55.384 61.984 52.888C61.984 48.792 61.312 46.008 59.968 44.536C59.136 43.576 57.792 42.904 55.936 42.52C54.08 42.136 51.808 41.944 49.12 41.944C47.968 41.944 46.816 41.976 45.664 42.04C44.576 42.104 43.264 42.232 41.728 42.424C40.256 42.552 38.336 42.776 35.968 43.096L35.008 36.568C36.16 36.248 37.568 35.992 39.232 35.8C40.96 35.544 42.752 35.352 44.608 35.224C46.528 35.096 48.256 35.032 49.792 35.032C53.696 35.032 57.184 35.544 60.256 36.568C63.328 37.592 65.76 39.32 67.552 41.752C69.344 44.184 70.24 47.544 70.24 51.832C70.24 54.968 69.792 57.528 68.896 59.512C68 61.432 66.912 62.936 65.632 64.024C64.416 65.048 63.232 65.784 62.08 66.232C60.928 66.616 60.064 66.872 59.488 67V67.384C60.768 67.576 62.112 67.96 63.52 68.536C64.992 69.112 66.4 70.04 67.744 71.32C69.088 72.536 70.176 74.2 71.008 76.312C71.84 78.424 72.256 81.112 72.256 84.376C72.256 87.96 71.616 91.256 70.336 94.264C69.056 97.272 66.944 99.704 64 101.56C61.056 103.352 57.12 104.248 52.192 104.248ZM105.849 104.248C101.241 104.248 97.3685 103.32 94.2325 101.464C91.0965 99.544 88.7285 97.08 87.1285 94.072C85.5925 91.064 84.8245 87.96 84.8245 84.76C84.8245 81.944 85.3685 79.416 86.4565 77.176C87.6085 74.872 89.0485 72.92 90.7765 71.32C92.5045 69.72 94.2325 68.568 95.9605 67.864C93.5925 66.136 91.4805 63.992 89.6245 61.432C87.7685 58.808 86.8405 55.576 86.8405 51.736C86.8405 46.872 88.4725 42.872 91.7365 39.736C95.0005 36.6 99.8005 35.032 106.137 35.032C110.489 35.032 114.105 35.8 116.985 37.336C119.865 38.808 122.009 40.824 123.417 43.384C124.825 45.88 125.529 48.696 125.529 51.832C125.529 56.12 124.537 59.576 122.553 62.2C120.633 64.824 118.265 66.936 115.449 68.536C117.113 69.496 118.873 70.68 120.729 72.088C122.585 73.496 124.185 75.288 125.529 77.464C126.873 79.576 127.545 82.264 127.545 85.528C127.545 88.792 126.681 91.864 124.953 94.744C123.289 97.56 120.825 99.864 117.561 101.656C114.361 103.384 110.457 104.248 105.849 104.248ZM107.865 65.272C110.873 64.184 113.209 62.616 114.873 60.568C116.537 58.52 117.369 55.64 117.369 51.928C117.369 48.856 116.537 46.392 114.873 44.536C113.273 42.616 110.393 41.656 106.233 41.656C101.881 41.656 98.9045 42.52 97.3045 44.248C95.7045 45.912 94.9045 48.12 94.9045 50.872C94.9045 54.2 95.8965 56.984 97.8805 59.224C99.8645 61.4 103.193 63.416 107.865 65.272ZM106.137 97.336C110.553 97.336 113.753 96.408 115.737 94.552C117.785 92.632 118.809 90.008 118.809 86.68C118.809 84.12 118.297 81.976 117.273 80.248C116.313 78.52 114.713 76.984 112.473 75.64C110.233 74.296 107.225 72.984 103.449 71.704C100.313 72.92 97.8805 74.488 96.1525 76.408C94.4245 78.264 93.5605 81.304 93.5605 85.528C93.5605 87.704 93.9445 89.688 94.7125 91.48C95.4805 93.272 96.7925 94.712 98.6485 95.8C100.505 96.824 103.001 97.336 106.137 97.336Z" fill="#E4951E"/>
</g>
<defs>
<filter id="filter0_d" x="0" y="0" width="158" height="158" filterUnits="userSpaceOnUse" color-interpolation-filters="sRGB">
<feFlood flood-opacity="0" result="BackgroundImageFix"/>
<feColorMatrix in="SourceAlpha" type="matrix" values="0 0 0 0 0 0 0 0 0 0 0 0 0 0 0 0 0 0 127 0"/>
<feOffset dy="4"/>
<feGaussianBlur stdDeviation="2"/>
<feColorMatrix type="matrix" values="0 0 0 0 0 0 0 0 0 0 0 0 0 0 0 0 0 0 0.25 0"/>
<feBlend mode="normal" in2="BackgroundImageFix" result="effect1_dropShadow"/>
<feBlend mode="normal" in="SourceGraphic" in2="effect1_dropShadow" result="shape"/>
</filter>
</defs>
</svg>
