<svg width="158" height="158" viewBox="0 0 158 158" fill="none" xmlns="http://www.w3.org/2000/svg">
<g filter="url(#filter0_d)">
<circle cx="79" cy="75" r="74" fill="white" stroke="#D7CFCF" stroke-width="2"/>
<path d="M51.192 104.248C47.48 104.248 44.152 103.832 41.208 103C38.328 102.232 35.96 101.4 34.104 100.504C32.312 99.544 31.096 98.904 30.456 98.584L33.528 92.44C34.104 92.696 35.352 93.208 37.272 93.976C39.192 94.744 41.496 95.448 44.184 96.088C46.872 96.728 49.624 97.048 52.44 97.048C56.408 97.048 59.096 96.088 60.504 94.168C61.976 92.184 62.712 89.144 62.712 85.048C62.712 79.672 61.656 75.96 59.544 73.912C57.432 71.864 54.136 70.84 49.656 70.84H40.728V64.504C44.632 64.184 47.896 63.864 50.52 63.544C53.144 63.224 55.224 62.712 56.76 62.008C58.296 61.304 59.384 60.248 60.024 58.84C60.664 57.368 60.984 55.384 60.984 52.888C60.984 48.792 60.312 46.008 58.968 44.536C58.136 43.576 56.792 42.904 54.936 42.52C53.08 42.136 50.808 41.944 48.12 41.944C46.968 41.944 45.816 41.976 44.664 42.04C43.576 42.104 42.264 42.232 40.728 42.424C39.256 42.552 37.336 42.776 34.968 43.096L34.008 36.568C35.16 36.248 36.568 35.992 38.232 35.8C39.96 35.544 41.752 35.352 43.608 35.224C45.528 35.096 47.256 35.032 48.792 35.032C52.696 35.032 56.184 35.544 59.256 36.568C62.328 37.592 64.76 39.32 66.552 41.752C68.344 44.184 69.24 47.544 69.24 51.832C69.24 54.968 68.792 57.528 67.896 59.512C67 61.432 65.912 62.936 64.632 64.024C63.416 65.048 62.232 65.784 61.08 66.232C59.928 66.616 59.064 66.872 58.488 67V67.384C59.768 67.576 61.112 67.96 62.52 68.536C63.992 69.112 65.4 70.04 66.744 71.32C68.088 72.536 69.176 74.2 70.008 76.312C70.84 78.424 71.256 81.112 71.256 84.376C71.256 87.96 70.616 91.256 69.336 94.264C68.056 97.272 65.944 99.704 63 101.56C60.056 103.352 56.12 104.248 51.192 104.248ZM105.137 104.248C102.641 104.248 100.273 103.96 98.0325 103.384C95.8565 102.808 93.9365 102.136 92.2725 101.368C90.6085 100.536 89.2965 99.832 88.3365 99.256C87.3765 98.68 86.8965 98.392 86.8965 98.392L89.8725 92.344C89.8725 92.344 90.3205 92.6 91.2165 93.112C92.1125 93.624 93.3285 94.232 94.8645 94.936C96.4005 95.576 98.1285 96.152 100.049 96.664C101.969 97.176 103.953 97.432 106.001 97.432C107.665 97.432 109.009 97.24 110.033 96.856C111.057 96.408 111.921 95.8 112.625 95.032C114.033 93.56 115.249 91.064 116.273 87.544C117.297 83.96 117.809 79.672 117.809 74.68C117.809 74.68 117.137 74.808 115.793 75.064C114.449 75.32 112.785 75.576 110.801 75.832C108.881 76.024 106.929 76.12 104.945 76.12C98.9925 76.12 94.1925 74.584 90.5445 71.512C86.8965 68.376 85.0725 63.32 85.0725 56.344C85.0725 49.624 86.8325 44.408 90.3525 40.696C93.8725 36.92 98.8005 35.032 105.137 35.032C109.361 35.032 113.073 36.056 116.273 38.104C119.473 40.152 121.937 43.64 123.665 48.568C125.457 53.496 126.353 60.312 126.353 69.016C126.353 80.216 124.657 88.888 121.265 95.032C117.937 101.176 112.561 104.248 105.137 104.248ZM104.561 68.824C106.993 68.824 109.201 68.632 111.185 68.248C113.169 67.864 114.769 67.48 115.985 67.096C117.201 66.712 117.809 66.52 117.809 66.52C117.809 60.632 117.553 56.12 117.041 52.984C116.529 49.784 115.889 47.512 115.121 46.168C114.417 44.824 113.649 43.928 112.817 43.48C111.857 42.968 110.673 42.584 109.265 42.328C107.921 42.072 106.449 41.944 104.849 41.944C101.521 41.944 98.9925 42.488 97.2645 43.576C95.6005 44.6 94.4805 46.2 93.9045 48.376C93.3285 50.552 93.0405 53.304 93.0405 56.632C93.0405 59 93.2645 61.112 93.7125 62.968C94.1605 64.824 95.1845 66.264 96.7845 67.288C98.4485 68.312 101.041 68.824 104.561 68.824Z" fill="#E4951E"/>
</g>
<defs>
<filter id="filter0_d" x="0" y="0" width="158" height="158" filterUnits="userSpaceOnUse" color-interpolation-filters="sRGB">
<feFlood flood-opacity="0" result="BackgroundImageFix"/>
<feColorMatrix in="SourceAlpha" type="matrix" values="0 0 0 0 0 0 0 0 0 0 0 0 0 0 0 0 0 0 127 0"/>
<feOffset dy="4"/>
<feGaussianBlur stdDeviation="2"/>
<feColorMatrix type="matrix" values="0 0 0 0 0 0 0 0 0 0 0 0 0 0 0 0 0 0 0.25 0"/>
<feBlend mode="normal" in2="BackgroundImageFix" result="effect1_dropShadow"/>
<feBlend mode="normal" in="SourceGraphic" in2="effect1_dropShadow" result="shape"/>
</filter>
</defs>
</svg>
