<svg width="158" height="158" viewBox="0 0 158 158" fill="none" xmlns="http://www.w3.org/2000/svg">
<g filter="url(#filter0_d)">
<circle cx="79" cy="75" r="74" fill="white" stroke="#D7CFCF" stroke-width="2"/>
<path d="M59.64 103L59.928 87.448H29.784V81.4L44.952 35.224L52.824 36.28L38.328 80.248V80.728L59.928 80.344L61.752 54.52H67.704V80.344L73.848 80.152V87.448H67.704L67.8 103H59.64ZM106.019 104.248C102.947 104.248 100.099 103.736 97.4745 102.712C94.8505 101.688 92.5465 99.928 90.5625 97.432C88.6425 94.872 87.1065 91.352 85.9545 86.872C84.8665 82.328 84.3225 76.536 84.3225 69.496C84.3225 62.52 84.8665 56.792 85.9545 52.312C87.1065 47.832 88.6425 44.344 90.5625 41.848C92.5465 39.288 94.8505 37.528 97.4745 36.568C100.099 35.544 102.947 35.032 106.019 35.032C109.091 35.032 111.939 35.544 114.563 36.568C117.187 37.528 119.491 39.288 121.475 41.848C123.459 44.344 124.995 47.832 126.083 52.312C127.171 56.792 127.715 62.52 127.715 69.496C127.715 76.536 127.171 82.328 126.083 86.872C124.995 91.352 123.459 94.872 121.475 97.432C119.491 99.928 117.187 101.688 114.563 102.712C111.939 103.736 109.091 104.248 106.019 104.248ZM106.115 96.952C109.059 96.952 111.491 96.216 113.411 94.744C115.395 93.208 116.899 90.456 117.923 86.488C118.947 82.52 119.459 76.856 119.459 69.496C119.459 63.8 119.139 59.16 118.499 55.576C117.923 51.992 117.059 49.24 115.907 47.32C114.755 45.4 113.347 44.088 111.683 43.384C110.019 42.616 108.131 42.232 106.019 42.232C103.907 42.232 102.019 42.584 100.355 43.288C98.6905 43.992 97.2825 45.304 96.1305 47.224C94.9785 49.144 94.1145 51.896 93.5385 55.48C92.9625 59 92.6745 63.608 92.6745 69.304C92.6745 76.664 93.1545 82.36 94.1145 86.392C95.1385 90.36 96.6425 93.112 98.6265 94.648C100.675 96.184 103.171 96.952 106.115 96.952Z" fill="#E4951E"/>
</g>
<defs>
<filter id="filter0_d" x="0" y="0" width="158" height="158" filterUnits="userSpaceOnUse" color-interpolation-filters="sRGB">
<feFlood flood-opacity="0" result="BackgroundImageFix"/>
<feColorMatrix in="SourceAlpha" type="matrix" values="0 0 0 0 0 0 0 0 0 0 0 0 0 0 0 0 0 0 127 0"/>
<feOffset dy="4"/>
<feGaussianBlur stdDeviation="2"/>
<feColorMatrix type="matrix" values="0 0 0 0 0 0 0 0 0 0 0 0 0 0 0 0 0 0 0.25 0"/>
<feBlend mode="normal" in2="BackgroundImageFix" result="effect1_dropShadow"/>
<feBlend mode="normal" in="SourceGraphic" in2="effect1_dropShadow" result="shape"/>
</filter>
</defs>
</svg>
