<svg width="158" height="158" viewBox="0 0 158 158" fill="none" xmlns="http://www.w3.org/2000/svg">
<g filter="url(#filter0_d)">
<circle cx="79" cy="75" r="74" fill="white" stroke="#D7CFCF" stroke-width="2"/>
<path d="M59.64 103L59.928 87.448H29.784V81.4L44.952 35.224L52.824 36.28L38.328 80.248V80.728L59.928 80.344L61.752 54.52H67.704V80.344L73.848 80.152V87.448H67.704L67.8 103H59.64ZM83.001 103V96.76C83.001 96.76 84.473 95.032 87.417 91.576C90.361 88.12 94.649 82.808 100.281 75.64C104.313 70.52 107.609 65.976 110.169 62.008C112.729 57.976 114.009 54.104 114.009 50.392C114.009 47.96 113.337 46.008 111.993 44.536C110.713 43 108.441 42.232 105.177 42.232C102.105 42.232 98.809 42.872 95.289 44.152C91.769 45.432 88.633 46.968 85.881 48.76L82.521 42.712C83.545 41.816 85.081 40.76 87.129 39.544C89.241 38.328 91.705 37.272 94.521 36.376C97.337 35.48 100.281 35.032 103.353 35.032C106.937 35.032 110.105 35.704 112.857 37.048C115.673 38.392 117.881 40.28 119.481 42.712C121.081 45.144 121.881 47.992 121.881 51.256C121.881 54.008 121.305 56.792 120.153 59.608C119.065 62.36 117.657 65.08 115.929 67.768C114.265 70.392 112.505 72.92 110.649 75.352C109.945 76.312 108.953 77.624 107.673 79.288C106.393 80.888 105.017 82.648 103.545 84.568C102.073 86.488 100.665 88.312 99.321 90.04C97.977 91.704 96.857 93.08 95.961 94.168C95.129 95.256 94.713 95.8 94.713 95.8V96.28L123.321 95.8V103H83.001Z" fill="#E4951E"/>
</g>
<defs>
<filter id="filter0_d" x="0" y="0" width="158" height="158" filterUnits="userSpaceOnUse" color-interpolation-filters="sRGB">
<feFlood flood-opacity="0" result="BackgroundImageFix"/>
<feColorMatrix in="SourceAlpha" type="matrix" values="0 0 0 0 0 0 0 0 0 0 0 0 0 0 0 0 0 0 127 0"/>
<feOffset dy="4"/>
<feGaussianBlur stdDeviation="2"/>
<feColorMatrix type="matrix" values="0 0 0 0 0 0 0 0 0 0 0 0 0 0 0 0 0 0 0.25 0"/>
<feBlend mode="normal" in2="BackgroundImageFix" result="effect1_dropShadow"/>
<feBlend mode="normal" in="SourceGraphic" in2="effect1_dropShadow" result="shape"/>
</filter>
</defs>
</svg>
