<svg width="158" height="158" viewBox="0 0 158 158" fill="none" xmlns="http://www.w3.org/2000/svg">
<g filter="url(#filter0_d)">
<circle cx="79" cy="75" r="74" fill="white" stroke="#D7CFCF" stroke-width="2"/>
<path d="M59.64 103L59.928 87.448H29.784V81.4L44.952 35.224L52.824 36.28L38.328 80.248V80.728L59.928 80.344L61.752 54.52H67.704V80.344L73.848 80.152V87.448H67.704L67.8 103H59.64ZM102.755 104.248C99.0425 104.248 95.7145 103.832 92.7705 103C89.8905 102.232 87.5225 101.4 85.6665 100.504C83.8745 99.544 82.6585 98.904 82.0185 98.584L85.0905 92.44C85.6665 92.696 86.9145 93.208 88.8345 93.976C90.7545 94.744 93.0585 95.448 95.7465 96.088C98.4345 96.728 101.187 97.048 104.003 97.048C107.971 97.048 110.659 96.088 112.067 94.168C113.539 92.184 114.275 89.144 114.275 85.048C114.275 79.672 113.219 75.96 111.107 73.912C108.995 71.864 105.699 70.84 101.219 70.84H92.2905V64.504C96.1945 64.184 99.4585 63.864 102.083 63.544C104.707 63.224 106.787 62.712 108.323 62.008C109.859 61.304 110.947 60.248 111.587 58.84C112.227 57.368 112.547 55.384 112.547 52.888C112.547 48.792 111.875 46.008 110.531 44.536C109.699 43.576 108.355 42.904 106.499 42.52C104.643 42.136 102.371 41.944 99.6825 41.944C98.5305 41.944 97.3785 41.976 96.2265 42.04C95.1385 42.104 93.8265 42.232 92.2905 42.424C90.8185 42.552 88.8985 42.776 86.5305 43.096L85.5705 36.568C86.7225 36.248 88.1305 35.992 89.7945 35.8C91.5225 35.544 93.3145 35.352 95.1705 35.224C97.0905 35.096 98.8185 35.032 100.355 35.032C104.259 35.032 107.747 35.544 110.819 36.568C113.891 37.592 116.323 39.32 118.115 41.752C119.907 44.184 120.803 47.544 120.803 51.832C120.803 54.968 120.355 57.528 119.459 59.512C118.563 61.432 117.475 62.936 116.195 64.024C114.979 65.048 113.795 65.784 112.643 66.232C111.491 66.616 110.627 66.872 110.051 67V67.384C111.331 67.576 112.675 67.96 114.083 68.536C115.555 69.112 116.963 70.04 118.307 71.32C119.651 72.536 120.739 74.2 121.571 76.312C122.403 78.424 122.819 81.112 122.819 84.376C122.819 87.96 122.179 91.256 120.899 94.264C119.619 97.272 117.507 99.704 114.563 101.56C111.619 103.352 107.683 104.248 102.755 104.248Z" fill="#E4951E"/>
</g>
<defs>
<filter id="filter0_d" x="0" y="0" width="158" height="158" filterUnits="userSpaceOnUse" color-interpolation-filters="sRGB">
<feFlood flood-opacity="0" result="BackgroundImageFix"/>
<feColorMatrix in="SourceAlpha" type="matrix" values="0 0 0 0 0 0 0 0 0 0 0 0 0 0 0 0 0 0 127 0"/>
<feOffset dy="4"/>
<feGaussianBlur stdDeviation="2"/>
<feColorMatrix type="matrix" values="0 0 0 0 0 0 0 0 0 0 0 0 0 0 0 0 0 0 0.25 0"/>
<feBlend mode="normal" in2="BackgroundImageFix" result="effect1_dropShadow"/>
<feBlend mode="normal" in="SourceGraphic" in2="effect1_dropShadow" result="shape"/>
</filter>
</defs>
</svg>
