<svg width="158" height="158" viewBox="0 0 158 158" fill="none" xmlns="http://www.w3.org/2000/svg">
<g filter="url(#filter0_d)">
<circle cx="79" cy="75" r="74" fill="white" stroke="#D7CFCF" stroke-width="2"/>
<path d="M59.64 103L59.928 87.448H29.784V81.4L44.952 35.224L52.824 36.28L38.328 80.248V80.728L59.928 80.344L61.752 54.52H67.704V80.344L73.848 80.152V87.448H67.704L67.8 103H59.64ZM102.359 104.248C99.4153 104.248 96.6633 103.896 94.1033 103.192C91.6073 102.488 89.3993 101.688 87.4793 100.792C85.6233 99.832 84.1833 99 83.1593 98.296C82.1353 97.592 81.6233 97.24 81.6233 97.24L84.6953 91.192C84.6953 91.192 85.2393 91.48 86.3273 92.056C87.4793 92.632 88.9513 93.336 90.7433 94.168C92.5993 94.936 94.6473 95.608 96.8873 96.184C99.1273 96.76 101.367 97.048 103.607 97.048C106.615 97.048 108.855 96.568 110.327 95.608C111.543 94.776 112.439 93.208 113.015 90.904C113.655 88.6 113.975 86.328 113.975 84.088C113.975 82.04 113.719 79.96 113.207 77.848C112.759 75.736 112.087 74.264 111.191 73.432C110.167 72.344 108.087 71.608 104.951 71.224C101.815 70.776 98.1033 70.552 93.8153 70.552C91.7033 70.552 89.9113 70.584 88.4393 70.648C86.9673 70.712 86.2313 70.744 86.2313 70.744L91.1273 36.28H119.447V43.288L97.8473 42.904L95.0633 63.352C98.9673 63.544 102.583 63.928 105.911 64.504C109.239 65.08 112.119 66.072 114.551 67.48C117.047 68.888 118.967 70.872 120.311 73.432C121.719 75.928 122.423 79.224 122.423 83.32C122.423 89.912 120.631 95.064 117.047 98.776C113.463 102.424 108.567 104.248 102.359 104.248Z" fill="#E4951E"/>
</g>
<defs>
<filter id="filter0_d" x="0" y="0" width="158" height="158" filterUnits="userSpaceOnUse" color-interpolation-filters="sRGB">
<feFlood flood-opacity="0" result="BackgroundImageFix"/>
<feColorMatrix in="SourceAlpha" type="matrix" values="0 0 0 0 0 0 0 0 0 0 0 0 0 0 0 0 0 0 127 0"/>
<feOffset dy="4"/>
<feGaussianBlur stdDeviation="2"/>
<feColorMatrix type="matrix" values="0 0 0 0 0 0 0 0 0 0 0 0 0 0 0 0 0 0 0.25 0"/>
<feBlend mode="normal" in2="BackgroundImageFix" result="effect1_dropShadow"/>
<feBlend mode="normal" in="SourceGraphic" in2="effect1_dropShadow" result="shape"/>
</filter>
</defs>
</svg>
