<svg width="158" height="158" viewBox="0 0 158 158" fill="none" xmlns="http://www.w3.org/2000/svg">
<g filter="url(#filter0_d)">
<circle cx="79" cy="75" r="74" fill="white" stroke="#D7CFCF" stroke-width="2"/>
<path d="M59.64 103L59.928 87.448H29.784V81.4L44.952 35.224L52.824 36.28L38.328 80.248V80.728L59.928 80.344L61.752 54.52H67.704V80.344L73.848 80.152V87.448H67.704L67.8 103H59.64ZM105.539 104.248C101.123 104.248 97.3145 103.224 94.1145 101.176C90.9785 99.064 88.5465 95.608 86.8185 90.808C85.1545 85.944 84.3225 79.448 84.3225 71.32C84.3225 64.024 84.9625 58.04 86.2425 53.368C87.5865 48.632 89.3785 44.92 91.6185 42.232C93.9225 39.544 96.5785 37.688 99.5865 36.664C102.595 35.576 105.763 35.032 109.091 35.032C111.779 35.032 114.115 35.256 116.099 35.704C118.083 36.088 119.619 36.504 120.707 36.952C121.859 37.336 122.435 37.528 122.435 37.528L120.611 44.344C120.611 44.344 119.939 44.184 118.595 43.864C117.315 43.48 115.683 43.128 113.699 42.808C111.715 42.488 109.635 42.328 107.459 42.328C105.155 42.328 103.267 42.584 101.795 43.096C100.323 43.608 99.0425 44.408 97.9545 45.496C96.6105 46.904 95.4905 49.016 94.5945 51.832C93.7625 54.648 93.2185 58.616 92.9625 63.736C92.9625 63.736 93.4425 63.672 94.4025 63.544C95.4265 63.416 96.7065 63.32 98.2425 63.256C99.8425 63.128 101.475 63.064 103.139 63.064C107.747 63.064 111.747 63.704 115.139 64.984C118.531 66.2 121.155 68.248 123.011 71.128C124.867 74.008 125.795 77.912 125.795 82.84C125.795 89.752 123.971 95.064 120.323 98.776C116.739 102.424 111.811 104.248 105.539 104.248ZM106.115 97.432C110.595 97.432 113.667 96.376 115.331 94.264C116.995 92.088 117.827 88.376 117.827 83.128C117.827 79.864 117.475 77.272 116.771 75.352C116.131 73.432 114.883 72.056 113.027 71.224C111.171 70.392 108.515 69.976 105.059 69.976C102.883 69.976 100.867 70.104 99.0105 70.36C97.1545 70.552 95.6505 70.776 94.4985 71.032C93.3465 71.224 92.7705 71.32 92.7705 71.32V79C92.7705 82.584 92.9945 85.464 93.4425 87.64C93.9545 89.816 94.5305 91.448 95.1705 92.536C95.8105 93.56 96.3225 94.296 96.7065 94.744C97.3465 95.32 98.3705 95.928 99.7785 96.568C101.187 97.144 103.299 97.432 106.115 97.432Z" fill="#E4951E"/>
</g>
<defs>
<filter id="filter0_d" x="0" y="0" width="158" height="158" filterUnits="userSpaceOnUse" color-interpolation-filters="sRGB">
<feFlood flood-opacity="0" result="BackgroundImageFix"/>
<feColorMatrix in="SourceAlpha" type="matrix" values="0 0 0 0 0 0 0 0 0 0 0 0 0 0 0 0 0 0 127 0"/>
<feOffset dy="4"/>
<feGaussianBlur stdDeviation="2"/>
<feColorMatrix type="matrix" values="0 0 0 0 0 0 0 0 0 0 0 0 0 0 0 0 0 0 0.25 0"/>
<feBlend mode="normal" in2="BackgroundImageFix" result="effect1_dropShadow"/>
<feBlend mode="normal" in="SourceGraphic" in2="effect1_dropShadow" result="shape"/>
</filter>
</defs>
</svg>
