<svg width="158" height="158" viewBox="0 0 158 158" fill="none" xmlns="http://www.w3.org/2000/svg">
<g filter="url(#filter0_d)">
<circle cx="79" cy="75" r="74" fill="white" stroke="#D7CFCF" stroke-width="2"/>
<path d="M60.64 103L60.928 87.448H30.784V81.4L45.952 35.224L53.824 36.28L39.328 80.248V80.728L60.928 80.344L62.752 54.52H68.704V80.344L74.848 80.152V87.448H68.704L68.8 103H60.64ZM104.161 104.248C99.553 104.248 95.681 103.32 92.545 101.464C89.409 99.544 87.041 97.08 85.441 94.072C83.905 91.064 83.137 87.96 83.137 84.76C83.137 81.944 83.681 79.416 84.769 77.176C85.921 74.872 87.361 72.92 89.089 71.32C90.817 69.72 92.545 68.568 94.273 67.864C91.905 66.136 89.793 63.992 87.937 61.432C86.081 58.808 85.153 55.576 85.153 51.736C85.153 46.872 86.785 42.872 90.049 39.736C93.313 36.6 98.113 35.032 104.449 35.032C108.801 35.032 112.417 35.8 115.297 37.336C118.177 38.808 120.321 40.824 121.729 43.384C123.137 45.88 123.841 48.696 123.841 51.832C123.841 56.12 122.849 59.576 120.865 62.2C118.945 64.824 116.577 66.936 113.761 68.536C115.425 69.496 117.185 70.68 119.041 72.088C120.897 73.496 122.497 75.288 123.841 77.464C125.185 79.576 125.857 82.264 125.857 85.528C125.857 88.792 124.993 91.864 123.265 94.744C121.601 97.56 119.137 99.864 115.873 101.656C112.673 103.384 108.769 104.248 104.161 104.248ZM106.177 65.272C109.185 64.184 111.521 62.616 113.185 60.568C114.849 58.52 115.681 55.64 115.681 51.928C115.681 48.856 114.849 46.392 113.185 44.536C111.585 42.616 108.705 41.656 104.545 41.656C100.193 41.656 97.217 42.52 95.617 44.248C94.017 45.912 93.217 48.12 93.217 50.872C93.217 54.2 94.209 56.984 96.193 59.224C98.177 61.4 101.505 63.416 106.177 65.272ZM104.449 97.336C108.865 97.336 112.065 96.408 114.049 94.552C116.097 92.632 117.121 90.008 117.121 86.68C117.121 84.12 116.609 81.976 115.585 80.248C114.625 78.52 113.025 76.984 110.785 75.64C108.545 74.296 105.537 72.984 101.761 71.704C98.625 72.92 96.193 74.488 94.465 76.408C92.737 78.264 91.873 81.304 91.873 85.528C91.873 87.704 92.257 89.688 93.025 91.48C93.793 93.272 95.105 94.712 96.961 95.8C98.817 96.824 101.313 97.336 104.449 97.336Z" fill="#E4951E"/>
</g>
<defs>
<filter id="filter0_d" x="0" y="0" width="158" height="158" filterUnits="userSpaceOnUse" color-interpolation-filters="sRGB">
<feFlood flood-opacity="0" result="BackgroundImageFix"/>
<feColorMatrix in="SourceAlpha" type="matrix" values="0 0 0 0 0 0 0 0 0 0 0 0 0 0 0 0 0 0 127 0"/>
<feOffset dy="4"/>
<feGaussianBlur stdDeviation="2"/>
<feColorMatrix type="matrix" values="0 0 0 0 0 0 0 0 0 0 0 0 0 0 0 0 0 0 0.25 0"/>
<feBlend mode="normal" in2="BackgroundImageFix" result="effect1_dropShadow"/>
<feBlend mode="normal" in="SourceGraphic" in2="effect1_dropShadow" result="shape"/>
</filter>
</defs>
</svg>
