<svg width="158" height="158" viewBox="0 0 158 158" fill="none" xmlns="http://www.w3.org/2000/svg">
<g filter="url(#filter0_d)">
<circle cx="79" cy="75" r="74" fill="white" stroke="#D7CFCF" stroke-width="2"/>
<path d="M59.64 103L59.928 87.448H29.784V81.4L44.952 35.224L52.824 36.28L38.328 80.248V80.728L59.928 80.344L61.752 54.52H67.704V80.344L73.848 80.152V87.448H67.704L67.8 103H59.64ZM101.48 104.248C98.9843 104.248 96.6163 103.96 94.3763 103.384C92.2003 102.808 90.2803 102.136 88.6163 101.368C86.9523 100.536 85.6403 99.832 84.6803 99.256C83.7203 98.68 83.2403 98.392 83.2403 98.392L86.2163 92.344C86.2163 92.344 86.6643 92.6 87.5603 93.112C88.4563 93.624 89.6723 94.232 91.2083 94.936C92.7443 95.576 94.4723 96.152 96.3923 96.664C98.3123 97.176 100.296 97.432 102.344 97.432C104.008 97.432 105.352 97.24 106.376 96.856C107.4 96.408 108.264 95.8 108.968 95.032C110.376 93.56 111.592 91.064 112.616 87.544C113.64 83.96 114.152 79.672 114.152 74.68C114.152 74.68 113.48 74.808 112.136 75.064C110.792 75.32 109.128 75.576 107.144 75.832C105.224 76.024 103.272 76.12 101.288 76.12C95.3363 76.12 90.5363 74.584 86.8883 71.512C83.2403 68.376 81.4163 63.32 81.4163 56.344C81.4163 49.624 83.1763 44.408 86.6963 40.696C90.2163 36.92 95.1443 35.032 101.48 35.032C105.704 35.032 109.416 36.056 112.616 38.104C115.816 40.152 118.28 43.64 120.008 48.568C121.8 53.496 122.696 60.312 122.696 69.016C122.696 80.216 121 88.888 117.608 95.032C114.28 101.176 108.904 104.248 101.48 104.248ZM100.904 68.824C103.336 68.824 105.544 68.632 107.528 68.248C109.512 67.864 111.112 67.48 112.328 67.096C113.544 66.712 114.152 66.52 114.152 66.52C114.152 60.632 113.896 56.12 113.384 52.984C112.872 49.784 112.232 47.512 111.464 46.168C110.76 44.824 109.992 43.928 109.16 43.48C108.2 42.968 107.016 42.584 105.608 42.328C104.264 42.072 102.792 41.944 101.192 41.944C97.8643 41.944 95.3363 42.488 93.6083 43.576C91.9443 44.6 90.8243 46.2 90.2483 48.376C89.6723 50.552 89.3843 53.304 89.3843 56.632C89.3843 59 89.6083 61.112 90.0563 62.968C90.5043 64.824 91.5283 66.264 93.1283 67.288C94.7923 68.312 97.3843 68.824 100.904 68.824Z" fill="#E4951E"/>
</g>
<defs>
<filter id="filter0_d" x="0" y="0" width="158" height="158" filterUnits="userSpaceOnUse" color-interpolation-filters="sRGB">
<feFlood flood-opacity="0" result="BackgroundImageFix"/>
<feColorMatrix in="SourceAlpha" type="matrix" values="0 0 0 0 0 0 0 0 0 0 0 0 0 0 0 0 0 0 127 0"/>
<feOffset dy="4"/>
<feGaussianBlur stdDeviation="2"/>
<feColorMatrix type="matrix" values="0 0 0 0 0 0 0 0 0 0 0 0 0 0 0 0 0 0 0.25 0"/>
<feBlend mode="normal" in2="BackgroundImageFix" result="effect1_dropShadow"/>
<feBlend mode="normal" in="SourceGraphic" in2="effect1_dropShadow" result="shape"/>
</filter>
</defs>
</svg>
