<svg width="158" height="158" viewBox="0 0 158 158" fill="none" xmlns="http://www.w3.org/2000/svg">
<g filter="url(#filter0_d)">
<circle cx="79" cy="75" r="74" fill="white" stroke="#D7CFCF" stroke-width="2"/>
<path d="M50.328 104.248C47.384 104.248 44.632 103.896 42.072 103.192C39.576 102.488 37.368 101.688 35.448 100.792C33.592 99.832 32.152 99 31.128 98.296C30.104 97.592 29.592 97.24 29.592 97.24L32.664 91.192C32.664 91.192 33.208 91.48 34.296 92.056C35.448 92.632 36.92 93.336 38.712 94.168C40.568 94.936 42.616 95.608 44.856 96.184C47.096 96.76 49.336 97.048 51.576 97.048C54.584 97.048 56.824 96.568 58.296 95.608C59.512 94.776 60.408 93.208 60.984 90.904C61.624 88.6 61.944 86.328 61.944 84.088C61.944 82.04 61.688 79.96 61.176 77.848C60.728 75.736 60.056 74.264 59.16 73.432C58.136 72.344 56.056 71.608 52.92 71.224C49.784 70.776 46.072 70.552 41.784 70.552C39.672 70.552 37.88 70.584 36.408 70.648C34.936 70.712 34.2 70.744 34.2 70.744L39.096 36.28H67.416V43.288L45.816 42.904L43.032 63.352C46.936 63.544 50.552 63.928 53.88 64.504C57.208 65.08 60.088 66.072 62.52 67.48C65.016 68.888 66.936 70.872 68.28 73.432C69.688 75.928 70.392 79.224 70.392 83.32C70.392 89.912 68.6 95.064 65.016 98.776C61.432 102.424 56.536 104.248 50.328 104.248ZM103.3 104.248C100.228 104.248 97.3798 103.736 94.7558 102.712C92.1318 101.688 89.8278 99.928 87.8438 97.432C85.9238 94.872 84.3878 91.352 83.2358 86.872C82.1478 82.328 81.6038 76.536 81.6038 69.496C81.6038 62.52 82.1478 56.792 83.2358 52.312C84.3878 47.832 85.9238 44.344 87.8438 41.848C89.8278 39.288 92.1318 37.528 94.7558 36.568C97.3798 35.544 100.228 35.032 103.3 35.032C106.372 35.032 109.22 35.544 111.844 36.568C114.468 37.528 116.772 39.288 118.756 41.848C120.74 44.344 122.276 47.832 123.364 52.312C124.452 56.792 124.996 62.52 124.996 69.496C124.996 76.536 124.452 82.328 123.364 86.872C122.276 91.352 120.74 94.872 118.756 97.432C116.772 99.928 114.468 101.688 111.844 102.712C109.22 103.736 106.372 104.248 103.3 104.248ZM103.396 96.952C106.34 96.952 108.772 96.216 110.692 94.744C112.676 93.208 114.18 90.456 115.204 86.488C116.228 82.52 116.74 76.856 116.74 69.496C116.74 63.8 116.42 59.16 115.78 55.576C115.204 51.992 114.34 49.24 113.188 47.32C112.036 45.4 110.628 44.088 108.964 43.384C107.3 42.616 105.412 42.232 103.3 42.232C101.188 42.232 99.2998 42.584 97.6358 43.288C95.9718 43.992 94.5638 45.304 93.4118 47.224C92.2598 49.144 91.3958 51.896 90.8198 55.48C90.2438 59 89.9557 63.608 89.9557 69.304C89.9557 76.664 90.4358 82.36 91.3958 86.392C92.4198 90.36 93.9238 93.112 95.9078 94.648C97.9558 96.184 100.452 96.952 103.396 96.952Z" fill="#E4951E"/>
</g>
<defs>
<filter id="filter0_d" x="0" y="0" width="158" height="158" filterUnits="userSpaceOnUse" color-interpolation-filters="sRGB">
<feFlood flood-opacity="0" result="BackgroundImageFix"/>
<feColorMatrix in="SourceAlpha" type="matrix" values="0 0 0 0 0 0 0 0 0 0 0 0 0 0 0 0 0 0 127 0"/>
<feOffset dy="4"/>
<feGaussianBlur stdDeviation="2"/>
<feColorMatrix type="matrix" values="0 0 0 0 0 0 0 0 0 0 0 0 0 0 0 0 0 0 0.25 0"/>
<feBlend mode="normal" in2="BackgroundImageFix" result="effect1_dropShadow"/>
<feBlend mode="normal" in="SourceGraphic" in2="effect1_dropShadow" result="shape"/>
</filter>
</defs>
</svg>
