<svg width="158" height="158" viewBox="0 0 158 158" fill="none" xmlns="http://www.w3.org/2000/svg">
<g filter="url(#filter0_d)">
<circle cx="79" cy="75" r="74" fill="white" stroke="#D7CFCF" stroke-width="2"/>
<path d="M76.976 104.248C72.56 104.248 68.752 103.224 65.552 101.176C62.416 99.064 59.984 95.608 58.256 90.808C56.592 85.944 55.76 79.448 55.76 71.32C55.76 64.024 56.4 58.04 57.68 53.368C59.024 48.632 60.816 44.92 63.056 42.232C65.36 39.544 68.016 37.688 71.024 36.664C74.032 35.576 77.2 35.032 80.528 35.032C83.216 35.032 85.552 35.256 87.536 35.704C89.52 36.088 91.056 36.504 92.144 36.952C93.296 37.336 93.872 37.528 93.872 37.528L92.048 44.344C92.048 44.344 91.376 44.184 90.032 43.864C88.752 43.48 87.12 43.128 85.136 42.808C83.152 42.488 81.072 42.328 78.896 42.328C76.592 42.328 74.704 42.584 73.232 43.096C71.76 43.608 70.48 44.408 69.392 45.496C68.048 46.904 66.928 49.016 66.032 51.832C65.2 54.648 64.656 58.616 64.4 63.736C64.4 63.736 64.88 63.672 65.84 63.544C66.864 63.416 68.144 63.32 69.68 63.256C71.28 63.128 72.912 63.064 74.576 63.064C79.184 63.064 83.184 63.704 86.576 64.984C89.968 66.2 92.592 68.248 94.448 71.128C96.304 74.008 97.232 77.912 97.232 82.84C97.232 89.752 95.408 95.064 91.76 98.776C88.176 102.424 83.248 104.248 76.976 104.248ZM77.552 97.432C82.032 97.432 85.104 96.376 86.768 94.264C88.432 92.088 89.264 88.376 89.264 83.128C89.264 79.864 88.912 77.272 88.208 75.352C87.568 73.432 86.32 72.056 84.464 71.224C82.608 70.392 79.952 69.976 76.496 69.976C74.32 69.976 72.304 70.104 70.448 70.36C68.592 70.552 67.088 70.776 65.936 71.032C64.784 71.224 64.208 71.32 64.208 71.32V79C64.208 82.584 64.432 85.464 64.88 87.64C65.392 89.816 65.968 91.448 66.608 92.536C67.248 93.56 67.76 94.296 68.144 94.744C68.784 95.32 69.808 95.928 71.216 96.568C72.624 97.144 74.736 97.432 77.552 97.432Z" fill="#E4951E"/>
</g>
<defs>
<filter id="filter0_d" x="0" y="0" width="158" height="158" filterUnits="userSpaceOnUse" color-interpolation-filters="sRGB">
<feFlood flood-opacity="0" result="BackgroundImageFix"/>
<feColorMatrix in="SourceAlpha" type="matrix" values="0 0 0 0 0 0 0 0 0 0 0 0 0 0 0 0 0 0 127 0"/>
<feOffset dy="4"/>
<feGaussianBlur stdDeviation="2"/>
<feColorMatrix type="matrix" values="0 0 0 0 0 0 0 0 0 0 0 0 0 0 0 0 0 0 0.25 0"/>
<feBlend mode="normal" in2="BackgroundImageFix" result="effect1_dropShadow"/>
<feBlend mode="normal" in="SourceGraphic" in2="effect1_dropShadow" result="shape"/>
</filter>
</defs>
</svg>
