<svg width="158" height="158" viewBox="0 0 158 158" fill="none" xmlns="http://www.w3.org/2000/svg">
<g filter="url(#filter0_d)">
<circle cx="79" cy="75" r="74" fill="white" stroke="#D7CFCF" stroke-width="2"/>
<path d="M75.536 104.248C70.928 104.248 67.056 103.32 63.92 101.464C60.784 99.544 58.416 97.08 56.816 94.072C55.28 91.064 54.512 87.96 54.512 84.76C54.512 81.944 55.056 79.416 56.144 77.176C57.296 74.872 58.736 72.92 60.464 71.32C62.192 69.72 63.92 68.568 65.648 67.864C63.28 66.136 61.168 63.992 59.312 61.432C57.456 58.808 56.528 55.576 56.528 51.736C56.528 46.872 58.16 42.872 61.424 39.736C64.688 36.6 69.488 35.032 75.824 35.032C80.176 35.032 83.792 35.8 86.672 37.336C89.552 38.808 91.696 40.824 93.104 43.384C94.512 45.88 95.216 48.696 95.216 51.832C95.216 56.12 94.224 59.576 92.24 62.2C90.32 64.824 87.952 66.936 85.136 68.536C86.8 69.496 88.56 70.68 90.416 72.088C92.272 73.496 93.872 75.288 95.216 77.464C96.56 79.576 97.232 82.264 97.232 85.528C97.232 88.792 96.368 91.864 94.64 94.744C92.976 97.56 90.512 99.864 87.248 101.656C84.048 103.384 80.144 104.248 75.536 104.248ZM77.552 65.272C80.56 64.184 82.896 62.616 84.56 60.568C86.224 58.52 87.056 55.64 87.056 51.928C87.056 48.856 86.224 46.392 84.56 44.536C82.96 42.616 80.08 41.656 75.92 41.656C71.568 41.656 68.592 42.52 66.992 44.248C65.392 45.912 64.592 48.12 64.592 50.872C64.592 54.2 65.584 56.984 67.568 59.224C69.552 61.4 72.88 63.416 77.552 65.272ZM75.824 97.336C80.24 97.336 83.44 96.408 85.424 94.552C87.472 92.632 88.496 90.008 88.496 86.68C88.496 84.12 87.984 81.976 86.96 80.248C86 78.52 84.4 76.984 82.16 75.64C79.92 74.296 76.912 72.984 73.136 71.704C70 72.92 67.568 74.488 65.84 76.408C64.112 78.264 63.248 81.304 63.248 85.528C63.248 87.704 63.632 89.688 64.4 91.48C65.168 93.272 66.48 94.712 68.336 95.8C70.192 96.824 72.688 97.336 75.824 97.336Z" fill="#E4951E"/>
</g>
<defs>
<filter id="filter0_d" x="0" y="0" width="158" height="158" filterUnits="userSpaceOnUse" color-interpolation-filters="sRGB">
<feFlood flood-opacity="0" result="BackgroundImageFix"/>
<feColorMatrix in="SourceAlpha" type="matrix" values="0 0 0 0 0 0 0 0 0 0 0 0 0 0 0 0 0 0 127 0"/>
<feOffset dy="4"/>
<feGaussianBlur stdDeviation="2"/>
<feColorMatrix type="matrix" values="0 0 0 0 0 0 0 0 0 0 0 0 0 0 0 0 0 0 0.25 0"/>
<feBlend mode="normal" in2="BackgroundImageFix" result="effect1_dropShadow"/>
<feBlend mode="normal" in="SourceGraphic" in2="effect1_dropShadow" result="shape"/>
</filter>
</defs>
</svg>
