<svg width="158" height="158" viewBox="0 0 158 158" fill="none" xmlns="http://www.w3.org/2000/svg">
<g filter="url(#filter0_d)">
<circle cx="79" cy="75" r="74" fill="white" stroke="#D7CFCF" stroke-width="2"/>
<path d="M75.824 104.248C73.328 104.248 70.96 103.96 68.72 103.384C66.544 102.808 64.624 102.136 62.96 101.368C61.296 100.536 59.984 99.832 59.024 99.256C58.064 98.68 57.584 98.392 57.584 98.392L60.56 92.344C60.56 92.344 61.008 92.6 61.904 93.112C62.8 93.624 64.016 94.232 65.552 94.936C67.088 95.576 68.816 96.152 70.736 96.664C72.656 97.176 74.64 97.432 76.688 97.432C78.352 97.432 79.696 97.24 80.72 96.856C81.744 96.408 82.608 95.8 83.312 95.032C84.72 93.56 85.936 91.064 86.96 87.544C87.984 83.96 88.496 79.672 88.496 74.68C88.496 74.68 87.824 74.808 86.48 75.064C85.136 75.32 83.472 75.576 81.488 75.832C79.568 76.024 77.616 76.12 75.632 76.12C69.68 76.12 64.88 74.584 61.232 71.512C57.584 68.376 55.76 63.32 55.76 56.344C55.76 49.624 57.52 44.408 61.04 40.696C64.56 36.92 69.488 35.032 75.824 35.032C80.048 35.032 83.76 36.056 86.96 38.104C90.16 40.152 92.624 43.64 94.352 48.568C96.144 53.496 97.04 60.312 97.04 69.016C97.04 80.216 95.344 88.888 91.952 95.032C88.624 101.176 83.248 104.248 75.824 104.248ZM75.248 68.824C77.68 68.824 79.888 68.632 81.872 68.248C83.856 67.864 85.456 67.48 86.672 67.096C87.888 66.712 88.496 66.52 88.496 66.52C88.496 60.632 88.24 56.12 87.728 52.984C87.216 49.784 86.576 47.512 85.808 46.168C85.104 44.824 84.336 43.928 83.504 43.48C82.544 42.968 81.36 42.584 79.952 42.328C78.608 42.072 77.136 41.944 75.536 41.944C72.208 41.944 69.68 42.488 67.952 43.576C66.288 44.6 65.168 46.2 64.592 48.376C64.016 50.552 63.728 53.304 63.728 56.632C63.728 59 63.952 61.112 64.4 62.968C64.848 64.824 65.872 66.264 67.472 67.288C69.136 68.312 71.728 68.824 75.248 68.824Z" fill="#E4951E"/>
</g>
<defs>
<filter id="filter0_d" x="0" y="0" width="158" height="158" filterUnits="userSpaceOnUse" color-interpolation-filters="sRGB">
<feFlood flood-opacity="0" result="BackgroundImageFix"/>
<feColorMatrix in="SourceAlpha" type="matrix" values="0 0 0 0 0 0 0 0 0 0 0 0 0 0 0 0 0 0 127 0"/>
<feOffset dy="4"/>
<feGaussianBlur stdDeviation="2"/>
<feColorMatrix type="matrix" values="0 0 0 0 0 0 0 0 0 0 0 0 0 0 0 0 0 0 0.25 0"/>
<feBlend mode="normal" in2="BackgroundImageFix" result="effect1_dropShadow"/>
<feBlend mode="normal" in="SourceGraphic" in2="effect1_dropShadow" result="shape"/>
</filter>
</defs>
</svg>
